solid OpenSCAD_Model
  facet normal 0.995185 0.098015 0
    outer loop
      vertex 3.5 0 10
      vertex 3.43275 0.682816 0
      vertex 3.43275 0.682816 10
    endloop
  endfacet
  facet normal 0.995185 0.098015 0
    outer loop
      vertex 3.43275 0.682816 0
      vertex 3.5 0 10
      vertex 3.5 0 0
    endloop
  endfacet
  facet normal -0.995185 0.098015 0
    outer loop
      vertex -3.5 0 0
      vertex -3.43275 0.682816 10
      vertex -3.43275 0.682816 0
    endloop
  endfacet
  facet normal -0.995185 0.098015 0
    outer loop
      vertex -3.43275 0.682816 10
      vertex -3.5 0 0
      vertex -3.5 0 10
    endloop
  endfacet
  facet normal 0.098015 0.995185 -0
    outer loop
      vertex 0.682816 3.43275 0
      vertex 0 3.5 10
      vertex 0.682816 3.43275 10
    endloop
  endfacet
  facet normal 0.098015 0.995185 0
    outer loop
      vertex 0 3.5 10
      vertex 0.682816 3.43275 0
      vertex 0 3.5 0
    endloop
  endfacet
  facet normal 0.773006 0.634399 0
    outer loop
      vertex 2.91014 1.9445 10
      vertex 2.47487 2.47487 0
      vertex 2.47487 2.47487 10
    endloop
  endfacet
  facet normal 0.773006 0.634399 0
    outer loop
      vertex 2.47487 2.47487 0
      vertex 2.91014 1.9445 10
      vertex 2.91014 1.9445 0
    endloop
  endfacet
  facet normal 0.95694 0.290285 0
    outer loop
      vertex 3.43275 0.682816 10
      vertex 3.23358 1.33939 0
      vertex 3.23358 1.33939 10
    endloop
  endfacet
  facet normal 0.95694 0.290285 0
    outer loop
      vertex 3.23358 1.33939 0
      vertex 3.43275 0.682816 10
      vertex 3.43275 0.682816 0
    endloop
  endfacet
  facet normal -0.634399 0.773006 0
    outer loop
      vertex -1.9445 2.91014 0
      vertex -2.47487 2.47487 10
      vertex -1.9445 2.91014 10
    endloop
  endfacet
  facet normal -0.634399 0.773006 0
    outer loop
      vertex -2.47487 2.47487 10
      vertex -1.9445 2.91014 0
      vertex -2.47487 2.47487 0
    endloop
  endfacet
  facet normal -0.290285 0.95694 0
    outer loop
      vertex -0.682816 3.43275 0
      vertex -1.33939 3.23358 10
      vertex -0.682816 3.43275 10
    endloop
  endfacet
  facet normal -0.290285 0.95694 0
    outer loop
      vertex -1.33939 3.23358 10
      vertex -0.682816 3.43275 0
      vertex -1.33939 3.23358 0
    endloop
  endfacet
  facet normal 0 0 -1
    outer loop
      vertex 3.43275 -0.682816 0
      vertex 3.43275 0.682816 0
      vertex 3.5 0 0
    endloop
  endfacet
  facet normal 0 0 -1
    outer loop
      vertex 3.23358 -1.33939 0
      vertex 3.43275 0.682816 0
      vertex 3.43275 -0.682816 0
    endloop
  endfacet
  facet normal 0 0 -1
    outer loop
      vertex 3.23358 -1.33939 0
      vertex 3.23358 1.33939 0
      vertex 3.43275 0.682816 0
    endloop
  endfacet
  facet normal 0 0 -1
    outer loop
      vertex 2.91014 -1.9445 0
      vertex 3.23358 1.33939 0
      vertex 3.23358 -1.33939 0
    endloop
  endfacet
  facet normal 0 0 -1
    outer loop
      vertex 2.91014 -1.9445 0
      vertex 2.91014 1.9445 0
      vertex 3.23358 1.33939 0
    endloop
  endfacet
  facet normal 0 0 -1
    outer loop
      vertex 2.47487 -2.47487 0
      vertex 2.91014 1.9445 0
      vertex 2.91014 -1.9445 0
    endloop
  endfacet
  facet normal 0 0 -1
    outer loop
      vertex 2.47487 -2.47487 0
      vertex 2.47487 2.47487 0
      vertex 2.91014 1.9445 0
    endloop
  endfacet
  facet normal 0 0 -1
    outer loop
      vertex 1.9445 -2.91014 0
      vertex 2.47487 2.47487 0
      vertex 2.47487 -2.47487 0
    endloop
  endfacet
  facet normal 0 0 -1
    outer loop
      vertex 1.9445 -2.91014 0
      vertex 1.9445 2.91014 0
      vertex 2.47487 2.47487 0
    endloop
  endfacet
  facet normal 0 0 -1
    outer loop
      vertex 1.33939 -3.23358 0
      vertex 1.9445 2.91014 0
      vertex 1.9445 -2.91014 0
    endloop
  endfacet
  facet normal 0 0 -1
    outer loop
      vertex 1.33939 -3.23358 0
      vertex 1.33939 3.23358 0
      vertex 1.9445 2.91014 0
    endloop
  endfacet
  facet normal 0 0 -1
    outer loop
      vertex 0.682816 -3.43275 0
      vertex 1.33939 3.23358 0
      vertex 1.33939 -3.23358 0
    endloop
  endfacet
  facet normal 0 0 -1
    outer loop
      vertex 0.682816 -3.43275 0
      vertex 0.682816 3.43275 0
      vertex 1.33939 3.23358 0
    endloop
  endfacet
  facet normal 0 0 -1
    outer loop
      vertex 0 -3.5 0
      vertex 0.682816 3.43275 0
      vertex 0.682816 -3.43275 0
    endloop
  endfacet
  facet normal 0 0 -1
    outer loop
      vertex 0 -3.5 0
      vertex 0 3.5 0
      vertex 0.682816 3.43275 0
    endloop
  endfacet
  facet normal 0 0 -1
    outer loop
      vertex -0.682816 -3.43275 0
      vertex 0 3.5 0
      vertex 0 -3.5 0
    endloop
  endfacet
  facet normal 0 0 -1
    outer loop
      vertex -0.682816 -3.43275 0
      vertex -0.682816 3.43275 0
      vertex 0 3.5 0
    endloop
  endfacet
  facet normal 0 0 -1
    outer loop
      vertex -1.33939 -3.23358 0
      vertex -0.682816 3.43275 0
      vertex -0.682816 -3.43275 0
    endloop
  endfacet
  facet normal 0 0 -1
    outer loop
      vertex -1.33939 -3.23358 0
      vertex -1.33939 3.23358 0
      vertex -0.682816 3.43275 0
    endloop
  endfacet
  facet normal 0 0 -1
    outer loop
      vertex -1.9445 -2.91014 0
      vertex -1.33939 3.23358 0
      vertex -1.33939 -3.23358 0
    endloop
  endfacet
  facet normal 0 0 -1
    outer loop
      vertex -1.9445 -2.91014 0
      vertex -1.9445 2.91014 0
      vertex -1.33939 3.23358 0
    endloop
  endfacet
  facet normal 0 0 -1
    outer loop
      vertex -2.47487 -2.47487 0
      vertex -1.9445 2.91014 0
      vertex -1.9445 -2.91014 0
    endloop
  endfacet
  facet normal 0 0 -1
    outer loop
      vertex -2.47487 -2.47487 0
      vertex -2.47487 2.47487 0
      vertex -1.9445 2.91014 0
    endloop
  endfacet
  facet normal 0 0 -1
    outer loop
      vertex -2.91014 -1.9445 0
      vertex -2.47487 2.47487 0
      vertex -2.47487 -2.47487 0
    endloop
  endfacet
  facet normal 0 0 -1
    outer loop
      vertex -2.91014 -1.9445 0
      vertex -2.91014 1.9445 0
      vertex -2.47487 2.47487 0
    endloop
  endfacet
  facet normal 0 0 -1
    outer loop
      vertex -3.23358 -1.33939 0
      vertex -2.91014 1.9445 0
      vertex -2.91014 -1.9445 0
    endloop
  endfacet
  facet normal 0 0 -1
    outer loop
      vertex -3.23358 -1.33939 0
      vertex -3.23358 1.33939 0
      vertex -2.91014 1.9445 0
    endloop
  endfacet
  facet normal 0 0 -1
    outer loop
      vertex -3.43275 -0.682816 0
      vertex -3.23358 1.33939 0
      vertex -3.23358 -1.33939 0
    endloop
  endfacet
  facet normal 0 0 -1
    outer loop
      vertex -3.43275 -0.682816 0
      vertex -3.43275 0.682816 0
      vertex -3.23358 1.33939 0
    endloop
  endfacet
  facet normal 0 -0 -1
    outer loop
      vertex -3.43275 0.682816 0
      vertex -3.43275 -0.682816 0
      vertex -3.5 0 0
    endloop
  endfacet
  facet normal 0.88192 0.471399 0
    outer loop
      vertex 3.23358 1.33939 10
      vertex 2.91014 1.9445 0
      vertex 2.91014 1.9445 10
    endloop
  endfacet
  facet normal 0.88192 0.471399 0
    outer loop
      vertex 2.91014 1.9445 0
      vertex 3.23358 1.33939 10
      vertex 3.23358 1.33939 0
    endloop
  endfacet
  facet normal 0.471399 0.88192 -0
    outer loop
      vertex 1.9445 2.91014 0
      vertex 1.33939 3.23358 10
      vertex 1.9445 2.91014 10
    endloop
  endfacet
  facet normal 0.471399 0.88192 0
    outer loop
      vertex 1.33939 3.23358 10
      vertex 1.9445 2.91014 0
      vertex 1.33939 3.23358 0
    endloop
  endfacet
  facet normal 0.290285 0.95694 -0
    outer loop
      vertex 1.33939 3.23358 0
      vertex 0.682816 3.43275 10
      vertex 1.33939 3.23358 10
    endloop
  endfacet
  facet normal 0.290285 0.95694 0
    outer loop
      vertex 0.682816 3.43275 10
      vertex 1.33939 3.23358 0
      vertex 0.682816 3.43275 0
    endloop
  endfacet
  facet normal 0.634399 0.773006 -0
    outer loop
      vertex 2.47487 2.47487 0
      vertex 1.9445 2.91014 10
      vertex 2.47487 2.47487 10
    endloop
  endfacet
  facet normal 0.634399 0.773006 0
    outer loop
      vertex 1.9445 2.91014 10
      vertex 2.47487 2.47487 0
      vertex 1.9445 2.91014 0
    endloop
  endfacet
  facet normal -0.88192 0.471399 0
    outer loop
      vertex -3.23358 1.33939 0
      vertex -2.91014 1.9445 10
      vertex -2.91014 1.9445 0
    endloop
  endfacet
  facet normal -0.88192 0.471399 0
    outer loop
      vertex -2.91014 1.9445 10
      vertex -3.23358 1.33939 0
      vertex -3.23358 1.33939 10
    endloop
  endfacet
  facet normal -0.773006 0.634399 0
    outer loop
      vertex -2.91014 1.9445 0
      vertex -2.47487 2.47487 10
      vertex -2.47487 2.47487 0
    endloop
  endfacet
  facet normal -0.773006 0.634399 0
    outer loop
      vertex -2.47487 2.47487 10
      vertex -2.91014 1.9445 0
      vertex -2.91014 1.9445 10
    endloop
  endfacet
  facet normal -0.95694 0.290285 0
    outer loop
      vertex -3.43275 0.682816 0
      vertex -3.23358 1.33939 10
      vertex -3.23358 1.33939 0
    endloop
  endfacet
  facet normal -0.95694 0.290285 0
    outer loop
      vertex -3.23358 1.33939 10
      vertex -3.43275 0.682816 0
      vertex -3.43275 0.682816 10
    endloop
  endfacet
  facet normal 0 0 1
    outer loop
      vertex 2.5 0 10
      vertex 3.5 0 10
      vertex 3.43275 0.682816 10
    endloop
  endfacet
  facet normal 0 0 1
    outer loop
      vertex 2.45196 0.487725 10
      vertex 3.43275 0.682816 10
      vertex 3.23358 1.33939 10
    endloop
  endfacet
  facet normal 0 0 1
    outer loop
      vertex 3.5 0 10
      vertex 2.5 0 10
      vertex 3.43275 -0.682816 10
    endloop
  endfacet
  facet normal 0 0 1
    outer loop
      vertex 2.3097 0.956708 10
      vertex 3.23358 1.33939 10
      vertex 2.91014 1.9445 10
    endloop
  endfacet
  facet normal -0 0 1
    outer loop
      vertex 2.45196 -0.487725 10
      vertex 3.43275 -0.682816 10
      vertex 2.5 0 10
    endloop
  endfacet
  facet normal 0 0 1
    outer loop
      vertex 3.43275 -0.682816 10
      vertex 2.45196 -0.487725 10
      vertex 3.23358 -1.33939 10
    endloop
  endfacet
  facet normal 0 0 1
    outer loop
      vertex 2.07867 1.38893 10
      vertex 2.91014 1.9445 10
      vertex 2.47487 2.47487 10
    endloop
  endfacet
  facet normal 0 0 1
    outer loop
      vertex 3.43275 0.682816 10
      vertex 2.45196 0.487725 10
      vertex 2.5 0 10
    endloop
  endfacet
  facet normal 0 0 1
    outer loop
      vertex 3.23358 1.33939 10
      vertex 2.3097 0.956708 10
      vertex 2.45196 0.487725 10
    endloop
  endfacet
  facet normal 0 0 1
    outer loop
      vertex 2.91014 1.9445 10
      vertex 2.07867 1.38893 10
      vertex 2.3097 0.956708 10
    endloop
  endfacet
  facet normal 0 0 1
    outer loop
      vertex 1.76777 1.76777 10
      vertex 2.47487 2.47487 10
      vertex 1.9445 2.91014 10
    endloop
  endfacet
  facet normal 0 0 1
    outer loop
      vertex 2.47487 2.47487 10
      vertex 1.76777 1.76777 10
      vertex 2.07867 1.38893 10
    endloop
  endfacet
  facet normal 0 0 1
    outer loop
      vertex 1.9445 2.91014 10
      vertex 1.38893 2.07867 10
      vertex 1.76777 1.76777 10
    endloop
  endfacet
  facet normal 0 0 1
    outer loop
      vertex 1.33939 3.23358 10
      vertex 1.38893 2.07867 10
      vertex 1.9445 2.91014 10
    endloop
  endfacet
  facet normal 0 0 1
    outer loop
      vertex 1.33939 3.23358 10
      vertex 0.956708 2.3097 10
      vertex 1.38893 2.07867 10
    endloop
  endfacet
  facet normal 0 0 1
    outer loop
      vertex 0.682816 3.43275 10
      vertex 0.956708 2.3097 10
      vertex 1.33939 3.23358 10
    endloop
  endfacet
  facet normal 0 0 1
    outer loop
      vertex 0.682816 3.43275 10
      vertex 0.487725 2.45196 10
      vertex 0.956708 2.3097 10
    endloop
  endfacet
  facet normal 0 0 1
    outer loop
      vertex 0 3.5 10
      vertex 0.487725 2.45196 10
      vertex 0.682816 3.43275 10
    endloop
  endfacet
  facet normal 0 0 1
    outer loop
      vertex 0 3.5 10
      vertex 0 2.5 10
      vertex 0.487725 2.45196 10
    endloop
  endfacet
  facet normal 0 0 1
    outer loop
      vertex 0 3.5 10
      vertex -0.487725 2.45196 10
      vertex 0 2.5 10
    endloop
  endfacet
  facet normal -0 0 1
    outer loop
      vertex -0.682816 3.43275 10
      vertex -0.487725 2.45196 10
      vertex 0 3.5 10
    endloop
  endfacet
  facet normal 0 0 1
    outer loop
      vertex -0.682816 3.43275 10
      vertex -0.956708 2.3097 10
      vertex -0.487725 2.45196 10
    endloop
  endfacet
  facet normal -0 0 1
    outer loop
      vertex -1.33939 3.23358 10
      vertex -0.956708 2.3097 10
      vertex -0.682816 3.43275 10
    endloop
  endfacet
  facet normal 0 0 1
    outer loop
      vertex -1.33939 3.23358 10
      vertex -1.38893 2.07867 10
      vertex -0.956708 2.3097 10
    endloop
  endfacet
  facet normal -0 0 1
    outer loop
      vertex -1.9445 2.91014 10
      vertex -1.38893 2.07867 10
      vertex -1.33939 3.23358 10
    endloop
  endfacet
  facet normal 0 0 1
    outer loop
      vertex -1.38893 2.07867 10
      vertex -1.9445 2.91014 10
      vertex -1.76777 1.76777 10
    endloop
  endfacet
  facet normal -0 0 1
    outer loop
      vertex -2.47487 2.47487 10
      vertex -1.76777 1.76777 10
      vertex -1.9445 2.91014 10
    endloop
  endfacet
  facet normal 0 0 1
    outer loop
      vertex -1.76777 1.76777 10
      vertex -2.47487 2.47487 10
      vertex -2.07867 1.38893 10
    endloop
  endfacet
  facet normal -0 0 1
    outer loop
      vertex -2.91014 1.9445 10
      vertex -2.07867 1.38893 10
      vertex -2.47487 2.47487 10
    endloop
  endfacet
  facet normal 0 0 1
    outer loop
      vertex -2.07867 1.38893 10
      vertex -2.91014 1.9445 10
      vertex -2.3097 0.956708 10
    endloop
  endfacet
  facet normal -0 0 1
    outer loop
      vertex -3.23358 1.33939 10
      vertex -2.3097 0.956708 10
      vertex -2.91014 1.9445 10
    endloop
  endfacet
  facet normal 0 0 1
    outer loop
      vertex -2.3097 0.956708 10
      vertex -3.23358 1.33939 10
      vertex -2.45196 0.487725 10
    endloop
  endfacet
  facet normal -0 0 1
    outer loop
      vertex 2.3097 -0.956708 10
      vertex 3.23358 -1.33939 10
      vertex 2.45196 -0.487725 10
    endloop
  endfacet
  facet normal 0 0 1
    outer loop
      vertex 3.23358 -1.33939 10
      vertex 2.3097 -0.956708 10
      vertex 2.91014 -1.9445 10
    endloop
  endfacet
  facet normal -0 0 1
    outer loop
      vertex 2.07867 -1.38893 10
      vertex 2.91014 -1.9445 10
      vertex 2.3097 -0.956708 10
    endloop
  endfacet
  facet normal 0 0 1
    outer loop
      vertex 2.91014 -1.9445 10
      vertex 2.07867 -1.38893 10
      vertex 2.47487 -2.47487 10
    endloop
  endfacet
  facet normal -0 0 1
    outer loop
      vertex 1.76777 -1.76777 10
      vertex 2.47487 -2.47487 10
      vertex 2.07867 -1.38893 10
    endloop
  endfacet
  facet normal 0 0 1
    outer loop
      vertex 2.47487 -2.47487 10
      vertex 1.76777 -1.76777 10
      vertex 1.9445 -2.91014 10
    endloop
  endfacet
  facet normal -0 0 1
    outer loop
      vertex 1.38893 -2.07867 10
      vertex 1.9445 -2.91014 10
      vertex 1.76777 -1.76777 10
    endloop
  endfacet
  facet normal 0 0 1
    outer loop
      vertex 1.38893 -2.07867 10
      vertex 1.33939 -3.23358 10
      vertex 1.9445 -2.91014 10
    endloop
  endfacet
  facet normal -0 0 1
    outer loop
      vertex 0.956708 -2.3097 10
      vertex 1.33939 -3.23358 10
      vertex 1.38893 -2.07867 10
    endloop
  endfacet
  facet normal 0 0 1
    outer loop
      vertex 0.956708 -2.3097 10
      vertex 0.682816 -3.43275 10
      vertex 1.33939 -3.23358 10
    endloop
  endfacet
  facet normal -0 0 1
    outer loop
      vertex 0.487725 -2.45196 10
      vertex 0.682816 -3.43275 10
      vertex 0.956708 -2.3097 10
    endloop
  endfacet
  facet normal -0 0 1
    outer loop
      vertex 0 -2.5 10
      vertex 0.682816 -3.43275 10
      vertex 0.487725 -2.45196 10
    endloop
  endfacet
  facet normal 0 0 1
    outer loop
      vertex 0 -2.5 10
      vertex 0 -3.5 10
      vertex 0.682816 -3.43275 10
    endloop
  endfacet
  facet normal 0 0 1
    outer loop
      vertex -0.487725 -2.45196 10
      vertex 0 -3.5 10
      vertex 0 -2.5 10
    endloop
  endfacet
  facet normal 0 0 1
    outer loop
      vertex -0.487725 -2.45196 10
      vertex -0.682816 -3.43275 10
      vertex 0 -3.5 10
    endloop
  endfacet
  facet normal 0 0 1
    outer loop
      vertex -0.956708 -2.3097 10
      vertex -0.682816 -3.43275 10
      vertex -0.487725 -2.45196 10
    endloop
  endfacet
  facet normal 0 0 1
    outer loop
      vertex -0.956708 -2.3097 10
      vertex -1.33939 -3.23358 10
      vertex -0.682816 -3.43275 10
    endloop
  endfacet
  facet normal 0 0 1
    outer loop
      vertex -1.38893 -2.07867 10
      vertex -1.33939 -3.23358 10
      vertex -0.956708 -2.3097 10
    endloop
  endfacet
  facet normal 0 0 1
    outer loop
      vertex -1.9445 -2.91014 10
      vertex -1.38893 -2.07867 10
      vertex -1.76777 -1.76777 10
    endloop
  endfacet
  facet normal 0 0 1
    outer loop
      vertex -1.38893 -2.07867 10
      vertex -1.9445 -2.91014 10
      vertex -1.33939 -3.23358 10
    endloop
  endfacet
  facet normal 0 0 1
    outer loop
      vertex -2.47487 -2.47487 10
      vertex -1.76777 -1.76777 10
      vertex -2.07867 -1.38893 10
    endloop
  endfacet
  facet normal 0 0 1
    outer loop
      vertex -2.91014 -1.9445 10
      vertex -2.07867 -1.38893 10
      vertex -2.3097 -0.956708 10
    endloop
  endfacet
  facet normal 0 0 1
    outer loop
      vertex -3.23358 -1.33939 10
      vertex -2.3097 -0.956708 10
      vertex -2.45196 -0.487725 10
    endloop
  endfacet
  facet normal 0 0 1
    outer loop
      vertex -1.76777 -1.76777 10
      vertex -2.47487 -2.47487 10
      vertex -1.9445 -2.91014 10
    endloop
  endfacet
  facet normal 0 0 1
    outer loop
      vertex -3.43275 -0.682816 10
      vertex -2.45196 -0.487725 10
      vertex -2.5 0 10
    endloop
  endfacet
  facet normal -0 0 1
    outer loop
      vertex -3.43275 0.682816 10
      vertex -2.45196 0.487725 10
      vertex -3.23358 1.33939 10
    endloop
  endfacet
  facet normal 0 0 1
    outer loop
      vertex -2.07867 -1.38893 10
      vertex -2.91014 -1.9445 10
      vertex -2.47487 -2.47487 10
    endloop
  endfacet
  facet normal 0 0 1
    outer loop
      vertex -2.45196 0.487725 10
      vertex -3.43275 0.682816 10
      vertex -2.5 0 10
    endloop
  endfacet
  facet normal 0 0 1
    outer loop
      vertex -2.3097 -0.956708 10
      vertex -3.23358 -1.33939 10
      vertex -2.91014 -1.9445 10
    endloop
  endfacet
  facet normal 0 0 1
    outer loop
      vertex -3.5 0 10
      vertex -2.5 0 10
      vertex -3.43275 0.682816 10
    endloop
  endfacet
  facet normal 0 0 1
    outer loop
      vertex -2.45196 -0.487725 10
      vertex -3.43275 -0.682816 10
      vertex -3.23358 -1.33939 10
    endloop
  endfacet
  facet normal 0 0 1
    outer loop
      vertex -2.5 0 10
      vertex -3.5 0 10
      vertex -3.43275 -0.682816 10
    endloop
  endfacet
  facet normal -0.471399 0.88192 0
    outer loop
      vertex -1.33939 3.23358 0
      vertex -1.9445 2.91014 10
      vertex -1.33939 3.23358 10
    endloop
  endfacet
  facet normal -0.471399 0.88192 0
    outer loop
      vertex -1.9445 2.91014 10
      vertex -1.33939 3.23358 0
      vertex -1.9445 2.91014 0
    endloop
  endfacet
  facet normal -0.098015 0.995185 0
    outer loop
      vertex 0 3.5 0
      vertex -0.682816 3.43275 10
      vertex 0 3.5 10
    endloop
  endfacet
  facet normal -0.098015 0.995185 0
    outer loop
      vertex -0.682816 3.43275 10
      vertex 0 3.5 0
      vertex -0.682816 3.43275 0
    endloop
  endfacet
  facet normal 0.098015 -0.995185 0
    outer loop
      vertex 0 -3.5 0
      vertex 0.682816 -3.43275 10
      vertex 0 -3.5 10
    endloop
  endfacet
  facet normal 0.098015 -0.995185 0
    outer loop
      vertex 0.682816 -3.43275 10
      vertex 0 -3.5 0
      vertex 0.682816 -3.43275 0
    endloop
  endfacet
  facet normal 0.471399 -0.88192 0
    outer loop
      vertex 1.33939 -3.23358 0
      vertex 1.9445 -2.91014 10
      vertex 1.33939 -3.23358 10
    endloop
  endfacet
  facet normal 0.471399 -0.88192 0
    outer loop
      vertex 1.9445 -2.91014 10
      vertex 1.33939 -3.23358 0
      vertex 1.9445 -2.91014 0
    endloop
  endfacet
  facet normal -0.634399 -0.773006 0
    outer loop
      vertex -2.47487 -2.47487 0
      vertex -1.9445 -2.91014 10
      vertex -2.47487 -2.47487 10
    endloop
  endfacet
  facet normal -0.634399 -0.773006 -0
    outer loop
      vertex -1.9445 -2.91014 10
      vertex -2.47487 -2.47487 0
      vertex -1.9445 -2.91014 0
    endloop
  endfacet
  facet normal -0.290285 -0.95694 0
    outer loop
      vertex -1.33939 -3.23358 0
      vertex -0.682816 -3.43275 10
      vertex -1.33939 -3.23358 10
    endloop
  endfacet
  facet normal -0.290285 -0.95694 -0
    outer loop
      vertex -0.682816 -3.43275 10
      vertex -1.33939 -3.23358 0
      vertex -0.682816 -3.43275 0
    endloop
  endfacet
  facet normal -0.88192 -0.471399 0
    outer loop
      vertex -2.91014 -1.9445 0
      vertex -3.23358 -1.33939 10
      vertex -3.23358 -1.33939 0
    endloop
  endfacet
  facet normal -0.88192 -0.471399 0
    outer loop
      vertex -3.23358 -1.33939 10
      vertex -2.91014 -1.9445 0
      vertex -2.91014 -1.9445 10
    endloop
  endfacet
  facet normal -0.995185 -0.098015 0
    outer loop
      vertex -3.43275 -0.682816 0
      vertex -3.5 0 10
      vertex -3.5 0 0
    endloop
  endfacet
  facet normal -0.995185 -0.098015 0
    outer loop
      vertex -3.5 0 10
      vertex -3.43275 -0.682816 0
      vertex -3.43275 -0.682816 10
    endloop
  endfacet
  facet normal 0.995185 -0.098015 0
    outer loop
      vertex 3.43275 -0.682816 10
      vertex 3.5 0 0
      vertex 3.5 0 10
    endloop
  endfacet
  facet normal 0.995185 -0.098015 0
    outer loop
      vertex 3.5 0 0
      vertex 3.43275 -0.682816 10
      vertex 3.43275 -0.682816 0
    endloop
  endfacet
  facet normal 0.290285 -0.95694 0
    outer loop
      vertex 0.682816 -3.43275 0
      vertex 1.33939 -3.23358 10
      vertex 0.682816 -3.43275 10
    endloop
  endfacet
  facet normal 0.290285 -0.95694 0
    outer loop
      vertex 1.33939 -3.23358 10
      vertex 0.682816 -3.43275 0
      vertex 1.33939 -3.23358 0
    endloop
  endfacet
  facet normal 0.634399 -0.773006 0
    outer loop
      vertex 1.9445 -2.91014 0
      vertex 2.47487 -2.47487 10
      vertex 1.9445 -2.91014 10
    endloop
  endfacet
  facet normal 0.634399 -0.773006 0
    outer loop
      vertex 2.47487 -2.47487 10
      vertex 1.9445 -2.91014 0
      vertex 2.47487 -2.47487 0
    endloop
  endfacet
  facet normal 0.88192 -0.471399 0
    outer loop
      vertex 2.91014 -1.9445 10
      vertex 3.23358 -1.33939 0
      vertex 3.23358 -1.33939 10
    endloop
  endfacet
  facet normal 0.88192 -0.471399 0
    outer loop
      vertex 3.23358 -1.33939 0
      vertex 2.91014 -1.9445 10
      vertex 2.91014 -1.9445 0
    endloop
  endfacet
  facet normal 0.773006 -0.634399 0
    outer loop
      vertex 2.47487 -2.47487 10
      vertex 2.91014 -1.9445 0
      vertex 2.91014 -1.9445 10
    endloop
  endfacet
  facet normal 0.773006 -0.634399 0
    outer loop
      vertex 2.91014 -1.9445 0
      vertex 2.47487 -2.47487 10
      vertex 2.47487 -2.47487 0
    endloop
  endfacet
  facet normal 0.95694 -0.290285 0
    outer loop
      vertex 3.23358 -1.33939 10
      vertex 3.43275 -0.682816 0
      vertex 3.43275 -0.682816 10
    endloop
  endfacet
  facet normal 0.95694 -0.290285 0
    outer loop
      vertex 3.43275 -0.682816 0
      vertex 3.23358 -1.33939 10
      vertex 3.23358 -1.33939 0
    endloop
  endfacet
  facet normal -0.471399 -0.88192 0
    outer loop
      vertex -1.9445 -2.91014 0
      vertex -1.33939 -3.23358 10
      vertex -1.9445 -2.91014 10
    endloop
  endfacet
  facet normal -0.471399 -0.88192 -0
    outer loop
      vertex -1.33939 -3.23358 10
      vertex -1.9445 -2.91014 0
      vertex -1.33939 -3.23358 0
    endloop
  endfacet
  facet normal -0.098015 -0.995185 0
    outer loop
      vertex -0.682816 -3.43275 0
      vertex 0 -3.5 10
      vertex -0.682816 -3.43275 10
    endloop
  endfacet
  facet normal -0.098015 -0.995185 -0
    outer loop
      vertex 0 -3.5 10
      vertex -0.682816 -3.43275 0
      vertex 0 -3.5 0
    endloop
  endfacet
  facet normal -0.773006 -0.634399 0
    outer loop
      vertex -2.47487 -2.47487 0
      vertex -2.91014 -1.9445 10
      vertex -2.91014 -1.9445 0
    endloop
  endfacet
  facet normal -0.773006 -0.634399 0
    outer loop
      vertex -2.91014 -1.9445 10
      vertex -2.47487 -2.47487 0
      vertex -2.47487 -2.47487 10
    endloop
  endfacet
  facet normal -0.95694 -0.290285 0
    outer loop
      vertex -3.23358 -1.33939 0
      vertex -3.43275 -0.682816 10
      vertex -3.43275 -0.682816 0
    endloop
  endfacet
  facet normal -0.95694 -0.290285 0
    outer loop
      vertex -3.43275 -0.682816 10
      vertex -3.23358 -1.33939 0
      vertex -3.23358 -1.33939 10
    endloop
  endfacet
  facet normal -0.995184 -0.0980238 0
    outer loop
      vertex 2.5 0 2
      vertex 2.45196 0.487725 10
      vertex 2.45196 0.487725 2
    endloop
  endfacet
  facet normal -0.995184 -0.0980238 0
    outer loop
      vertex 2.45196 0.487725 10
      vertex 2.5 0 2
      vertex 2.5 0 10
    endloop
  endfacet
  facet normal 0.995184 -0.0980238 0
    outer loop
      vertex -2.5 0 10
      vertex -2.45196 0.487725 2
      vertex -2.45196 0.487725 10
    endloop
  endfacet
  facet normal 0.995184 -0.0980238 0
    outer loop
      vertex -2.45196 0.487725 2
      vertex -2.5 0 10
      vertex -2.5 0 2
    endloop
  endfacet
  facet normal -0.0980238 -0.995184 0
    outer loop
      vertex 0 2.5 2
      vertex 0.487725 2.45196 10
      vertex 0 2.5 10
    endloop
  endfacet
  facet normal -0.0980238 -0.995184 -0
    outer loop
      vertex 0.487725 2.45196 10
      vertex 0 2.5 2
      vertex 0.487725 2.45196 2
    endloop
  endfacet
  facet normal -0.773016 -0.634386 0
    outer loop
      vertex 2.07867 1.38893 2
      vertex 1.76777 1.76777 10
      vertex 1.76777 1.76777 2
    endloop
  endfacet
  facet normal -0.773016 -0.634386 0
    outer loop
      vertex 1.76777 1.76777 10
      vertex 2.07867 1.38893 2
      vertex 2.07867 1.38893 10
    endloop
  endfacet
  facet normal 0.634386 -0.773016 0
    outer loop
      vertex -1.76777 1.76777 2
      vertex -1.38893 2.07867 10
      vertex -1.76777 1.76777 10
    endloop
  endfacet
  facet normal 0.634386 -0.773016 0
    outer loop
      vertex -1.38893 2.07867 10
      vertex -1.76777 1.76777 2
      vertex -1.38893 2.07867 2
    endloop
  endfacet
  facet normal 0.290276 -0.956943 0
    outer loop
      vertex -0.956708 2.3097 2
      vertex -0.487725 2.45196 10
      vertex -0.956708 2.3097 10
    endloop
  endfacet
  facet normal 0.290276 -0.956943 0
    outer loop
      vertex -0.487725 2.45196 10
      vertex -0.956708 2.3097 2
      vertex -0.487725 2.45196 2
    endloop
  endfacet
  facet normal -0.634386 0.773016 0
    outer loop
      vertex 1.76777 -1.76777 2
      vertex 1.38893 -2.07867 10
      vertex 1.76777 -1.76777 10
    endloop
  endfacet
  facet normal -0.634386 0.773016 0
    outer loop
      vertex 1.38893 -2.07867 10
      vertex 1.76777 -1.76777 2
      vertex 1.38893 -2.07867 2
    endloop
  endfacet
  facet normal 0 0 1
    outer loop
      vertex 2.45196 0.487725 2
      vertex 2.45196 -0.487725 2
      vertex 2.5 0 2
    endloop
  endfacet
  facet normal 0 0 1
    outer loop
      vertex 2.3097 0.956708 2
      vertex 2.45196 -0.487725 2
      vertex 2.45196 0.487725 2
    endloop
  endfacet
  facet normal 0 0 1
    outer loop
      vertex 2.3097 0.956708 2
      vertex 2.3097 -0.956708 2
      vertex 2.45196 -0.487725 2
    endloop
  endfacet
  facet normal 0 0 1
    outer loop
      vertex 2.07867 1.38893 2
      vertex 2.3097 -0.956708 2
      vertex 2.3097 0.956708 2
    endloop
  endfacet
  facet normal 0 0 1
    outer loop
      vertex 2.07867 1.38893 2
      vertex 2.07867 -1.38893 2
      vertex 2.3097 -0.956708 2
    endloop
  endfacet
  facet normal 0 0 1
    outer loop
      vertex 1.76777 1.76777 2
      vertex 2.07867 -1.38893 2
      vertex 2.07867 1.38893 2
    endloop
  endfacet
  facet normal 0 0 1
    outer loop
      vertex 1.76777 1.76777 2
      vertex 1.76777 -1.76777 2
      vertex 2.07867 -1.38893 2
    endloop
  endfacet
  facet normal 0 0 1
    outer loop
      vertex 1.38893 2.07867 2
      vertex 1.76777 -1.76777 2
      vertex 1.76777 1.76777 2
    endloop
  endfacet
  facet normal 0 0 1
    outer loop
      vertex 1.38893 2.07867 2
      vertex 1.38893 -2.07867 2
      vertex 1.76777 -1.76777 2
    endloop
  endfacet
  facet normal 0 0 1
    outer loop
      vertex 0.956708 2.3097 2
      vertex 1.38893 -2.07867 2
      vertex 1.38893 2.07867 2
    endloop
  endfacet
  facet normal 0 0 1
    outer loop
      vertex 0.956708 2.3097 2
      vertex 0.956708 -2.3097 2
      vertex 1.38893 -2.07867 2
    endloop
  endfacet
  facet normal 0 0 1
    outer loop
      vertex 0.487725 2.45196 2
      vertex 0.956708 -2.3097 2
      vertex 0.956708 2.3097 2
    endloop
  endfacet
  facet normal 0 0 1
    outer loop
      vertex 0.487725 2.45196 2
      vertex 0.487725 -2.45196 2
      vertex 0.956708 -2.3097 2
    endloop
  endfacet
  facet normal 0 0 1
    outer loop
      vertex 0 2.5 2
      vertex 0.487725 -2.45196 2
      vertex 0.487725 2.45196 2
    endloop
  endfacet
  facet normal 0 0 1
    outer loop
      vertex 0 2.5 2
      vertex 0 -2.5 2
      vertex 0.487725 -2.45196 2
    endloop
  endfacet
  facet normal -0 0 1
    outer loop
      vertex -0.487725 2.45196 2
      vertex 0 -2.5 2
      vertex 0 2.5 2
    endloop
  endfacet
  facet normal 0 0 1
    outer loop
      vertex -0.487725 2.45196 2
      vertex -0.487725 -2.45196 2
      vertex 0 -2.5 2
    endloop
  endfacet
  facet normal -0 0 1
    outer loop
      vertex -0.956708 2.3097 2
      vertex -0.487725 -2.45196 2
      vertex -0.487725 2.45196 2
    endloop
  endfacet
  facet normal 0 0 1
    outer loop
      vertex -0.956708 2.3097 2
      vertex -0.956708 -2.3097 2
      vertex -0.487725 -2.45196 2
    endloop
  endfacet
  facet normal -0 0 1
    outer loop
      vertex -1.38893 2.07867 2
      vertex -0.956708 -2.3097 2
      vertex -0.956708 2.3097 2
    endloop
  endfacet
  facet normal 0 0 1
    outer loop
      vertex -1.38893 2.07867 2
      vertex -1.38893 -2.07867 2
      vertex -0.956708 -2.3097 2
    endloop
  endfacet
  facet normal -0 0 1
    outer loop
      vertex -1.76777 1.76777 2
      vertex -1.38893 -2.07867 2
      vertex -1.38893 2.07867 2
    endloop
  endfacet
  facet normal 0 0 1
    outer loop
      vertex -1.76777 1.76777 2
      vertex -1.76777 -1.76777 2
      vertex -1.38893 -2.07867 2
    endloop
  endfacet
  facet normal -0 0 1
    outer loop
      vertex -2.07867 1.38893 2
      vertex -1.76777 -1.76777 2
      vertex -1.76777 1.76777 2
    endloop
  endfacet
  facet normal 0 0 1
    outer loop
      vertex -2.07867 1.38893 2
      vertex -2.07867 -1.38893 2
      vertex -1.76777 -1.76777 2
    endloop
  endfacet
  facet normal -0 0 1
    outer loop
      vertex -2.3097 0.956708 2
      vertex -2.07867 -1.38893 2
      vertex -2.07867 1.38893 2
    endloop
  endfacet
  facet normal 0 0 1
    outer loop
      vertex -2.3097 0.956708 2
      vertex -2.3097 -0.956708 2
      vertex -2.07867 -1.38893 2
    endloop
  endfacet
  facet normal -0 0 1
    outer loop
      vertex -2.45196 0.487725 2
      vertex -2.3097 -0.956708 2
      vertex -2.3097 0.956708 2
    endloop
  endfacet
  facet normal 0 0 1
    outer loop
      vertex -2.45196 0.487725 2
      vertex -2.45196 -0.487725 2
      vertex -2.3097 -0.956708 2
    endloop
  endfacet
  facet normal 0 -0 1
    outer loop
      vertex -2.45196 -0.487725 2
      vertex -2.45196 0.487725 2
      vertex -2.5 0 2
    endloop
  endfacet
  facet normal -0.881919 -0.471401 0
    outer loop
      vertex 2.3097 0.956708 2
      vertex 2.07867 1.38893 10
      vertex 2.07867 1.38893 2
    endloop
  endfacet
  facet normal -0.881919 -0.471401 0
    outer loop
      vertex 2.07867 1.38893 10
      vertex 2.3097 0.956708 2
      vertex 2.3097 0.956708 10
    endloop
  endfacet
  facet normal -0.956943 -0.290276 0
    outer loop
      vertex 2.45196 0.487725 2
      vertex 2.3097 0.956708 10
      vertex 2.3097 0.956708 2
    endloop
  endfacet
  facet normal -0.956943 -0.290276 0
    outer loop
      vertex 2.3097 0.956708 10
      vertex 2.45196 0.487725 2
      vertex 2.45196 0.487725 10
    endloop
  endfacet
  facet normal -0.471401 -0.881919 0
    outer loop
      vertex 0.956708 2.3097 2
      vertex 1.38893 2.07867 10
      vertex 0.956708 2.3097 10
    endloop
  endfacet
  facet normal -0.471401 -0.881919 -0
    outer loop
      vertex 1.38893 2.07867 10
      vertex 0.956708 2.3097 2
      vertex 1.38893 2.07867 2
    endloop
  endfacet
  facet normal -0.290276 -0.956943 0
    outer loop
      vertex 0.487725 2.45196 2
      vertex 0.956708 2.3097 10
      vertex 0.487725 2.45196 10
    endloop
  endfacet
  facet normal -0.290276 -0.956943 -0
    outer loop
      vertex 0.956708 2.3097 10
      vertex 0.487725 2.45196 2
      vertex 0.956708 2.3097 2
    endloop
  endfacet
  facet normal -0.634386 -0.773016 0
    outer loop
      vertex 1.38893 2.07867 2
      vertex 1.76777 1.76777 10
      vertex 1.38893 2.07867 10
    endloop
  endfacet
  facet normal -0.634386 -0.773016 -0
    outer loop
      vertex 1.76777 1.76777 10
      vertex 1.38893 2.07867 2
      vertex 1.76777 1.76777 2
    endloop
  endfacet
  facet normal 0.881919 -0.471401 0
    outer loop
      vertex -2.3097 0.956708 10
      vertex -2.07867 1.38893 2
      vertex -2.07867 1.38893 10
    endloop
  endfacet
  facet normal 0.881919 -0.471401 0
    outer loop
      vertex -2.07867 1.38893 2
      vertex -2.3097 0.956708 10
      vertex -2.3097 0.956708 2
    endloop
  endfacet
  facet normal 0.773016 -0.634386 0
    outer loop
      vertex -2.07867 1.38893 10
      vertex -1.76777 1.76777 2
      vertex -1.76777 1.76777 10
    endloop
  endfacet
  facet normal 0.773016 -0.634386 0
    outer loop
      vertex -1.76777 1.76777 2
      vertex -2.07867 1.38893 10
      vertex -2.07867 1.38893 2
    endloop
  endfacet
  facet normal 0.956943 -0.290276 0
    outer loop
      vertex -2.45196 0.487725 10
      vertex -2.3097 0.956708 2
      vertex -2.3097 0.956708 10
    endloop
  endfacet
  facet normal 0.956943 -0.290276 0
    outer loop
      vertex -2.3097 0.956708 2
      vertex -2.45196 0.487725 10
      vertex -2.45196 0.487725 2
    endloop
  endfacet
  facet normal 0.471401 -0.881919 0
    outer loop
      vertex -1.38893 2.07867 2
      vertex -0.956708 2.3097 10
      vertex -1.38893 2.07867 10
    endloop
  endfacet
  facet normal 0.471401 -0.881919 0
    outer loop
      vertex -0.956708 2.3097 10
      vertex -1.38893 2.07867 2
      vertex -0.956708 2.3097 2
    endloop
  endfacet
  facet normal 0.0980238 -0.995184 0
    outer loop
      vertex -0.487725 2.45196 2
      vertex 0 2.5 10
      vertex -0.487725 2.45196 10
    endloop
  endfacet
  facet normal 0.0980238 -0.995184 0
    outer loop
      vertex 0 2.5 10
      vertex -0.487725 2.45196 2
      vertex 0 2.5 2
    endloop
  endfacet
  facet normal -0.995184 0.0980238 0
    outer loop
      vertex 2.45196 -0.487725 2
      vertex 2.5 0 10
      vertex 2.5 0 2
    endloop
  endfacet
  facet normal -0.995184 0.0980238 0
    outer loop
      vertex 2.5 0 10
      vertex 2.45196 -0.487725 2
      vertex 2.45196 -0.487725 10
    endloop
  endfacet
  facet normal -0.0980238 0.995184 0
    outer loop
      vertex 0.487725 -2.45196 2
      vertex 0 -2.5 10
      vertex 0.487725 -2.45196 10
    endloop
  endfacet
  facet normal -0.0980238 0.995184 0
    outer loop
      vertex 0 -2.5 10
      vertex 0.487725 -2.45196 2
      vertex 0 -2.5 2
    endloop
  endfacet
  facet normal -0.471401 0.881919 0
    outer loop
      vertex 1.38893 -2.07867 2
      vertex 0.956708 -2.3097 10
      vertex 1.38893 -2.07867 10
    endloop
  endfacet
  facet normal -0.471401 0.881919 0
    outer loop
      vertex 0.956708 -2.3097 10
      vertex 1.38893 -2.07867 2
      vertex 0.956708 -2.3097 2
    endloop
  endfacet
  facet normal 0.634386 0.773016 -0
    outer loop
      vertex -1.38893 -2.07867 2
      vertex -1.76777 -1.76777 10
      vertex -1.38893 -2.07867 10
    endloop
  endfacet
  facet normal 0.634386 0.773016 0
    outer loop
      vertex -1.76777 -1.76777 10
      vertex -1.38893 -2.07867 2
      vertex -1.76777 -1.76777 2
    endloop
  endfacet
  facet normal 0.290276 0.956943 -0
    outer loop
      vertex -0.487725 -2.45196 2
      vertex -0.956708 -2.3097 10
      vertex -0.487725 -2.45196 10
    endloop
  endfacet
  facet normal 0.290276 0.956943 0
    outer loop
      vertex -0.956708 -2.3097 10
      vertex -0.487725 -2.45196 2
      vertex -0.956708 -2.3097 2
    endloop
  endfacet
  facet normal 0.881919 0.471401 0
    outer loop
      vertex -2.07867 -1.38893 10
      vertex -2.3097 -0.956708 2
      vertex -2.3097 -0.956708 10
    endloop
  endfacet
  facet normal 0.881919 0.471401 0
    outer loop
      vertex -2.3097 -0.956708 2
      vertex -2.07867 -1.38893 10
      vertex -2.07867 -1.38893 2
    endloop
  endfacet
  facet normal 0.995184 0.0980238 0
    outer loop
      vertex -2.45196 -0.487725 10
      vertex -2.5 0 2
      vertex -2.5 0 10
    endloop
  endfacet
  facet normal 0.995184 0.0980238 0
    outer loop
      vertex -2.5 0 2
      vertex -2.45196 -0.487725 10
      vertex -2.45196 -0.487725 2
    endloop
  endfacet
  facet normal -0.290276 0.956943 0
    outer loop
      vertex 0.956708 -2.3097 2
      vertex 0.487725 -2.45196 10
      vertex 0.956708 -2.3097 10
    endloop
  endfacet
  facet normal -0.290276 0.956943 0
    outer loop
      vertex 0.487725 -2.45196 10
      vertex 0.956708 -2.3097 2
      vertex 0.487725 -2.45196 2
    endloop
  endfacet
  facet normal -0.881919 0.471401 0
    outer loop
      vertex 2.07867 -1.38893 2
      vertex 2.3097 -0.956708 10
      vertex 2.3097 -0.956708 2
    endloop
  endfacet
  facet normal -0.881919 0.471401 0
    outer loop
      vertex 2.3097 -0.956708 10
      vertex 2.07867 -1.38893 2
      vertex 2.07867 -1.38893 10
    endloop
  endfacet
  facet normal -0.773016 0.634386 0
    outer loop
      vertex 1.76777 -1.76777 2
      vertex 2.07867 -1.38893 10
      vertex 2.07867 -1.38893 2
    endloop
  endfacet
  facet normal -0.773016 0.634386 0
    outer loop
      vertex 2.07867 -1.38893 10
      vertex 1.76777 -1.76777 2
      vertex 1.76777 -1.76777 10
    endloop
  endfacet
  facet normal -0.956943 0.290276 0
    outer loop
      vertex 2.3097 -0.956708 2
      vertex 2.45196 -0.487725 10
      vertex 2.45196 -0.487725 2
    endloop
  endfacet
  facet normal -0.956943 0.290276 0
    outer loop
      vertex 2.45196 -0.487725 10
      vertex 2.3097 -0.956708 2
      vertex 2.3097 -0.956708 10
    endloop
  endfacet
  facet normal 0.471401 0.881919 -0
    outer loop
      vertex -0.956708 -2.3097 2
      vertex -1.38893 -2.07867 10
      vertex -0.956708 -2.3097 10
    endloop
  endfacet
  facet normal 0.471401 0.881919 0
    outer loop
      vertex -1.38893 -2.07867 10
      vertex -0.956708 -2.3097 2
      vertex -1.38893 -2.07867 2
    endloop
  endfacet
  facet normal 0.0980238 0.995184 -0
    outer loop
      vertex 0 -2.5 2
      vertex -0.487725 -2.45196 10
      vertex 0 -2.5 10
    endloop
  endfacet
  facet normal 0.0980238 0.995184 0
    outer loop
      vertex -0.487725 -2.45196 10
      vertex 0 -2.5 2
      vertex -0.487725 -2.45196 2
    endloop
  endfacet
  facet normal 0.773016 0.634386 0
    outer loop
      vertex -1.76777 -1.76777 10
      vertex -2.07867 -1.38893 2
      vertex -2.07867 -1.38893 10
    endloop
  endfacet
  facet normal 0.773016 0.634386 0
    outer loop
      vertex -2.07867 -1.38893 2
      vertex -1.76777 -1.76777 10
      vertex -1.76777 -1.76777 2
    endloop
  endfacet
  facet normal 0.956943 0.290276 0
    outer loop
      vertex -2.3097 -0.956708 10
      vertex -2.45196 -0.487725 2
      vertex -2.45196 -0.487725 10
    endloop
  endfacet
  facet normal 0.956943 0.290276 0
    outer loop
      vertex -2.45196 -0.487725 2
      vertex -2.3097 -0.956708 10
      vertex -2.3097 -0.956708 2
    endloop
  endfacet
endsolid OpenSCAD_Model
