solid OpenSCAD_Model
  facet normal 0.995185 0.0980136 0
    outer loop
      vertex 5 0 2
      vertex 4.90393 0.975451 0
      vertex 4.90393 0.975451 2
    endloop
  endfacet
  facet normal 0.995185 0.0980136 0
    outer loop
      vertex 4.90393 0.975451 0
      vertex 5 0 2
      vertex 5 0 0
    endloop
  endfacet
  facet normal -0.995185 0.0980136 0
    outer loop
      vertex -5 0 0
      vertex -4.90393 0.975451 2
      vertex -4.90393 0.975451 0
    endloop
  endfacet
  facet normal -0.995185 0.0980136 0
    outer loop
      vertex -4.90393 0.975451 2
      vertex -5 0 0
      vertex -5 0 2
    endloop
  endfacet
  facet normal 0.0980136 0.995185 -0
    outer loop
      vertex 0.975451 4.90393 0
      vertex 0 5 2
      vertex 0.975451 4.90393 2
    endloop
  endfacet
  facet normal 0.0980136 0.995185 0
    outer loop
      vertex 0 5 2
      vertex 0.975451 4.90393 0
      vertex 0 5 0
    endloop
  endfacet
  facet normal 0.773006 0.634398 0
    outer loop
      vertex 4.15735 2.77785 2
      vertex 3.53553 3.53553 0
      vertex 3.53553 3.53553 2
    endloop
  endfacet
  facet normal 0.773006 0.634398 0
    outer loop
      vertex 3.53553 3.53553 0
      vertex 4.15735 2.77785 2
      vertex 4.15735 2.77785 0
    endloop
  endfacet
  facet normal -0.634398 0.773006 0
    outer loop
      vertex -2.77785 4.15735 0
      vertex -3.53553 3.53553 2
      vertex -2.77785 4.15735 2
    endloop
  endfacet
  facet normal -0.634398 0.773006 0
    outer loop
      vertex -3.53553 3.53553 2
      vertex -2.77785 4.15735 0
      vertex -3.53553 3.53553 0
    endloop
  endfacet
  facet normal -0.290285 0.95694 0
    outer loop
      vertex -0.975451 4.90393 0
      vertex -1.91342 4.6194 2
      vertex -0.975451 4.90393 2
    endloop
  endfacet
  facet normal -0.290285 0.95694 0
    outer loop
      vertex -1.91342 4.6194 2
      vertex -0.975451 4.90393 0
      vertex -1.91342 4.6194 0
    endloop
  endfacet
  facet normal 0 0 -1
    outer loop
      vertex 4.90393 -0.975451 0
      vertex 4.90393 0.975451 0
      vertex 5 0 0
    endloop
  endfacet
  facet normal 0 0 -1
    outer loop
      vertex 4.6194 -1.91342 0
      vertex 4.90393 0.975451 0
      vertex 4.90393 -0.975451 0
    endloop
  endfacet
  facet normal 0 0 -1
    outer loop
      vertex 4.6194 -1.91342 0
      vertex 4.6194 1.91342 0
      vertex 4.90393 0.975451 0
    endloop
  endfacet
  facet normal 0 0 -1
    outer loop
      vertex 4.15735 -2.77785 0
      vertex 4.6194 1.91342 0
      vertex 4.6194 -1.91342 0
    endloop
  endfacet
  facet normal 0 0 -1
    outer loop
      vertex 4.15735 -2.77785 0
      vertex 4.15735 2.77785 0
      vertex 4.6194 1.91342 0
    endloop
  endfacet
  facet normal 0 0 -1
    outer loop
      vertex 3.53553 -3.53553 0
      vertex 4.15735 2.77785 0
      vertex 4.15735 -2.77785 0
    endloop
  endfacet
  facet normal 0 0 -1
    outer loop
      vertex 3.53553 -3.53553 0
      vertex 3.53553 3.53553 0
      vertex 4.15735 2.77785 0
    endloop
  endfacet
  facet normal 0 0 -1
    outer loop
      vertex 2.77785 -4.15735 0
      vertex 3.53553 3.53553 0
      vertex 3.53553 -3.53553 0
    endloop
  endfacet
  facet normal 0 0 -1
    outer loop
      vertex 2.77785 -4.15735 0
      vertex 2.77785 4.15735 0
      vertex 3.53553 3.53553 0
    endloop
  endfacet
  facet normal 0 0 -1
    outer loop
      vertex 1.91342 -4.6194 0
      vertex 2.77785 4.15735 0
      vertex 2.77785 -4.15735 0
    endloop
  endfacet
  facet normal 0 0 -1
    outer loop
      vertex 1.91342 -4.6194 0
      vertex 1.91342 4.6194 0
      vertex 2.77785 4.15735 0
    endloop
  endfacet
  facet normal 0 0 -1
    outer loop
      vertex 0.975451 -4.90393 0
      vertex 1.91342 4.6194 0
      vertex 1.91342 -4.6194 0
    endloop
  endfacet
  facet normal 0 0 -1
    outer loop
      vertex 0.975451 -4.90393 0
      vertex 0.975451 4.90393 0
      vertex 1.91342 4.6194 0
    endloop
  endfacet
  facet normal 0 0 -1
    outer loop
      vertex 0 -5 0
      vertex 0.975451 4.90393 0
      vertex 0.975451 -4.90393 0
    endloop
  endfacet
  facet normal 0 0 -1
    outer loop
      vertex 0 -5 0
      vertex 0 5 0
      vertex 0.975451 4.90393 0
    endloop
  endfacet
  facet normal 0 0 -1
    outer loop
      vertex -0.975451 -4.90393 0
      vertex 0 5 0
      vertex 0 -5 0
    endloop
  endfacet
  facet normal 0 0 -1
    outer loop
      vertex -0.975451 -4.90393 0
      vertex -0.975451 4.90393 0
      vertex 0 5 0
    endloop
  endfacet
  facet normal 0 0 -1
    outer loop
      vertex -1.91342 -4.6194 0
      vertex -0.975451 4.90393 0
      vertex -0.975451 -4.90393 0
    endloop
  endfacet
  facet normal 0 0 -1
    outer loop
      vertex -1.91342 -4.6194 0
      vertex -1.91342 4.6194 0
      vertex -0.975451 4.90393 0
    endloop
  endfacet
  facet normal 0 0 -1
    outer loop
      vertex -2.77785 -4.15735 0
      vertex -1.91342 4.6194 0
      vertex -1.91342 -4.6194 0
    endloop
  endfacet
  facet normal 0 0 -1
    outer loop
      vertex -2.77785 -4.15735 0
      vertex -2.77785 4.15735 0
      vertex -1.91342 4.6194 0
    endloop
  endfacet
  facet normal 0 0 -1
    outer loop
      vertex -3.53553 -3.53553 0
      vertex -2.77785 4.15735 0
      vertex -2.77785 -4.15735 0
    endloop
  endfacet
  facet normal 0 0 -1
    outer loop
      vertex -3.53553 -3.53553 0
      vertex -3.53553 3.53553 0
      vertex -2.77785 4.15735 0
    endloop
  endfacet
  facet normal 0 0 -1
    outer loop
      vertex -4.15735 -2.77785 0
      vertex -3.53553 3.53553 0
      vertex -3.53553 -3.53553 0
    endloop
  endfacet
  facet normal 0 0 -1
    outer loop
      vertex -4.15735 -2.77785 0
      vertex -4.15735 2.77785 0
      vertex -3.53553 3.53553 0
    endloop
  endfacet
  facet normal 0 0 -1
    outer loop
      vertex -4.6194 -1.91342 0
      vertex -4.15735 2.77785 0
      vertex -4.15735 -2.77785 0
    endloop
  endfacet
  facet normal 0 0 -1
    outer loop
      vertex -4.6194 -1.91342 0
      vertex -4.6194 1.91342 0
      vertex -4.15735 2.77785 0
    endloop
  endfacet
  facet normal 0 0 -1
    outer loop
      vertex -4.90393 -0.975451 0
      vertex -4.6194 1.91342 0
      vertex -4.6194 -1.91342 0
    endloop
  endfacet
  facet normal 0 0 -1
    outer loop
      vertex -4.90393 -0.975451 0
      vertex -4.90393 0.975451 0
      vertex -4.6194 1.91342 0
    endloop
  endfacet
  facet normal 0 -0 -1
    outer loop
      vertex -4.90393 0.975451 0
      vertex -4.90393 -0.975451 0
      vertex -5 0 0
    endloop
  endfacet
  facet normal 0.88192 0.471399 0
    outer loop
      vertex 4.6194 1.91342 2
      vertex 4.15735 2.77785 0
      vertex 4.15735 2.77785 2
    endloop
  endfacet
  facet normal 0.88192 0.471399 0
    outer loop
      vertex 4.15735 2.77785 0
      vertex 4.6194 1.91342 2
      vertex 4.6194 1.91342 0
    endloop
  endfacet
  facet normal 0.95694 0.290285 0
    outer loop
      vertex 4.90393 0.975451 2
      vertex 4.6194 1.91342 0
      vertex 4.6194 1.91342 2
    endloop
  endfacet
  facet normal 0.95694 0.290285 0
    outer loop
      vertex 4.6194 1.91342 0
      vertex 4.90393 0.975451 2
      vertex 4.90393 0.975451 0
    endloop
  endfacet
  facet normal 0.471399 0.88192 -0
    outer loop
      vertex 2.77785 4.15735 0
      vertex 1.91342 4.6194 2
      vertex 2.77785 4.15735 2
    endloop
  endfacet
  facet normal 0.471399 0.88192 0
    outer loop
      vertex 1.91342 4.6194 2
      vertex 2.77785 4.15735 0
      vertex 1.91342 4.6194 0
    endloop
  endfacet
  facet normal 0.290285 0.95694 -0
    outer loop
      vertex 1.91342 4.6194 0
      vertex 0.975451 4.90393 2
      vertex 1.91342 4.6194 2
    endloop
  endfacet
  facet normal 0.290285 0.95694 0
    outer loop
      vertex 0.975451 4.90393 2
      vertex 1.91342 4.6194 0
      vertex 0.975451 4.90393 0
    endloop
  endfacet
  facet normal 0.634398 0.773006 -0
    outer loop
      vertex 3.53553 3.53553 0
      vertex 2.77785 4.15735 2
      vertex 3.53553 3.53553 2
    endloop
  endfacet
  facet normal 0.634398 0.773006 0
    outer loop
      vertex 2.77785 4.15735 2
      vertex 3.53553 3.53553 0
      vertex 2.77785 4.15735 0
    endloop
  endfacet
  facet normal -0.88192 0.471399 0
    outer loop
      vertex -4.6194 1.91342 0
      vertex -4.15735 2.77785 2
      vertex -4.15735 2.77785 0
    endloop
  endfacet
  facet normal -0.88192 0.471399 0
    outer loop
      vertex -4.15735 2.77785 2
      vertex -4.6194 1.91342 0
      vertex -4.6194 1.91342 2
    endloop
  endfacet
  facet normal -0.773006 0.634398 0
    outer loop
      vertex -4.15735 2.77785 0
      vertex -3.53553 3.53553 2
      vertex -3.53553 3.53553 0
    endloop
  endfacet
  facet normal -0.773006 0.634398 0
    outer loop
      vertex -3.53553 3.53553 2
      vertex -4.15735 2.77785 0
      vertex -4.15735 2.77785 2
    endloop
  endfacet
  facet normal -0.95694 0.290285 0
    outer loop
      vertex -4.90393 0.975451 0
      vertex -4.6194 1.91342 2
      vertex -4.6194 1.91342 0
    endloop
  endfacet
  facet normal -0.95694 0.290285 0
    outer loop
      vertex -4.6194 1.91342 2
      vertex -4.90393 0.975451 0
      vertex -4.90393 0.975451 2
    endloop
  endfacet
  facet normal -0.471399 0.88192 0
    outer loop
      vertex -1.91342 4.6194 0
      vertex -2.77785 4.15735 2
      vertex -1.91342 4.6194 2
    endloop
  endfacet
  facet normal -0.471399 0.88192 0
    outer loop
      vertex -2.77785 4.15735 2
      vertex -1.91342 4.6194 0
      vertex -2.77785 4.15735 0
    endloop
  endfacet
  facet normal -0.0980136 0.995185 0
    outer loop
      vertex 0 5 0
      vertex -0.975451 4.90393 2
      vertex 0 5 2
    endloop
  endfacet
  facet normal -0.0980136 0.995185 0
    outer loop
      vertex -0.975451 4.90393 2
      vertex 0 5 0
      vertex -0.975451 4.90393 0
    endloop
  endfacet
  facet normal 0.0980136 -0.995185 0
    outer loop
      vertex 0 -5 0
      vertex 0.975451 -4.90393 2
      vertex 0 -5 2
    endloop
  endfacet
  facet normal 0.0980136 -0.995185 0
    outer loop
      vertex 0.975451 -4.90393 2
      vertex 0 -5 0
      vertex 0.975451 -4.90393 0
    endloop
  endfacet
  facet normal 0.471399 -0.88192 0
    outer loop
      vertex 1.91342 -4.6194 0
      vertex 2.77785 -4.15735 2
      vertex 1.91342 -4.6194 2
    endloop
  endfacet
  facet normal 0.471399 -0.88192 0
    outer loop
      vertex 2.77785 -4.15735 2
      vertex 1.91342 -4.6194 0
      vertex 2.77785 -4.15735 0
    endloop
  endfacet
  facet normal -0.634398 -0.773006 0
    outer loop
      vertex -3.53553 -3.53553 0
      vertex -2.77785 -4.15735 2
      vertex -3.53553 -3.53553 2
    endloop
  endfacet
  facet normal -0.634398 -0.773006 -0
    outer loop
      vertex -2.77785 -4.15735 2
      vertex -3.53553 -3.53553 0
      vertex -2.77785 -4.15735 0
    endloop
  endfacet
  facet normal -0.290285 -0.95694 0
    outer loop
      vertex -1.91342 -4.6194 0
      vertex -0.975451 -4.90393 2
      vertex -1.91342 -4.6194 2
    endloop
  endfacet
  facet normal -0.290285 -0.95694 -0
    outer loop
      vertex -0.975451 -4.90393 2
      vertex -1.91342 -4.6194 0
      vertex -0.975451 -4.90393 0
    endloop
  endfacet
  facet normal -0.88192 -0.471399 0
    outer loop
      vertex -4.15735 -2.77785 0
      vertex -4.6194 -1.91342 2
      vertex -4.6194 -1.91342 0
    endloop
  endfacet
  facet normal -0.88192 -0.471399 0
    outer loop
      vertex -4.6194 -1.91342 2
      vertex -4.15735 -2.77785 0
      vertex -4.15735 -2.77785 2
    endloop
  endfacet
  facet normal -0.995185 -0.0980136 0
    outer loop
      vertex -4.90393 -0.975451 0
      vertex -5 0 2
      vertex -5 0 0
    endloop
  endfacet
  facet normal -0.995185 -0.0980136 0
    outer loop
      vertex -5 0 2
      vertex -4.90393 -0.975451 0
      vertex -4.90393 -0.975451 2
    endloop
  endfacet
  facet normal 0.290285 -0.95694 0
    outer loop
      vertex 0.975451 -4.90393 0
      vertex 1.91342 -4.6194 2
      vertex 0.975451 -4.90393 2
    endloop
  endfacet
  facet normal 0.290285 -0.95694 0
    outer loop
      vertex 1.91342 -4.6194 2
      vertex 0.975451 -4.90393 0
      vertex 1.91342 -4.6194 0
    endloop
  endfacet
  facet normal 0.634398 -0.773006 0
    outer loop
      vertex 2.77785 -4.15735 0
      vertex 3.53553 -3.53553 2
      vertex 2.77785 -4.15735 2
    endloop
  endfacet
  facet normal 0.634398 -0.773006 0
    outer loop
      vertex 3.53553 -3.53553 2
      vertex 2.77785 -4.15735 0
      vertex 3.53553 -3.53553 0
    endloop
  endfacet
  facet normal 0.88192 -0.471399 0
    outer loop
      vertex 4.15735 -2.77785 2
      vertex 4.6194 -1.91342 0
      vertex 4.6194 -1.91342 2
    endloop
  endfacet
  facet normal 0.88192 -0.471399 0
    outer loop
      vertex 4.6194 -1.91342 0
      vertex 4.15735 -2.77785 2
      vertex 4.15735 -2.77785 0
    endloop
  endfacet
  facet normal 0.773006 -0.634398 0
    outer loop
      vertex 3.53553 -3.53553 2
      vertex 4.15735 -2.77785 0
      vertex 4.15735 -2.77785 2
    endloop
  endfacet
  facet normal 0.773006 -0.634398 0
    outer loop
      vertex 4.15735 -2.77785 0
      vertex 3.53553 -3.53553 2
      vertex 3.53553 -3.53553 0
    endloop
  endfacet
  facet normal 0.95694 -0.290285 0
    outer loop
      vertex 4.6194 -1.91342 2
      vertex 4.90393 -0.975451 0
      vertex 4.90393 -0.975451 2
    endloop
  endfacet
  facet normal 0.95694 -0.290285 0
    outer loop
      vertex 4.90393 -0.975451 0
      vertex 4.6194 -1.91342 2
      vertex 4.6194 -1.91342 0
    endloop
  endfacet
  facet normal -0.471399 -0.88192 0
    outer loop
      vertex -2.77785 -4.15735 0
      vertex -1.91342 -4.6194 2
      vertex -2.77785 -4.15735 2
    endloop
  endfacet
  facet normal -0.471399 -0.88192 -0
    outer loop
      vertex -1.91342 -4.6194 2
      vertex -2.77785 -4.15735 0
      vertex -1.91342 -4.6194 0
    endloop
  endfacet
  facet normal -0.0980136 -0.995185 0
    outer loop
      vertex -0.975451 -4.90393 0
      vertex 0 -5 2
      vertex -0.975451 -4.90393 2
    endloop
  endfacet
  facet normal -0.0980136 -0.995185 -0
    outer loop
      vertex 0 -5 2
      vertex -0.975451 -4.90393 0
      vertex 0 -5 0
    endloop
  endfacet
  facet normal -0.773006 -0.634398 0
    outer loop
      vertex -3.53553 -3.53553 0
      vertex -4.15735 -2.77785 2
      vertex -4.15735 -2.77785 0
    endloop
  endfacet
  facet normal -0.773006 -0.634398 0
    outer loop
      vertex -4.15735 -2.77785 2
      vertex -3.53553 -3.53553 0
      vertex -3.53553 -3.53553 2
    endloop
  endfacet
  facet normal -0.95694 -0.290285 0
    outer loop
      vertex -4.6194 -1.91342 0
      vertex -4.90393 -0.975451 2
      vertex -4.90393 -0.975451 0
    endloop
  endfacet
  facet normal -0.95694 -0.290285 0
    outer loop
      vertex -4.90393 -0.975451 2
      vertex -4.6194 -1.91342 0
      vertex -4.6194 -1.91342 2
    endloop
  endfacet
  facet normal 0 0 1
    outer loop
      vertex 3.5 0 2
      vertex 5 0 2
      vertex 4.90393 0.975451 2
    endloop
  endfacet
  facet normal 0 0 1
    outer loop
      vertex 3.43275 0.682816 2
      vertex 4.90393 0.975451 2
      vertex 4.6194 1.91342 2
    endloop
  endfacet
  facet normal 0 0 1
    outer loop
      vertex 5 0 2
      vertex 3.5 0 2
      vertex 4.90393 -0.975451 2
    endloop
  endfacet
  facet normal 0 0 1
    outer loop
      vertex 3.23358 1.33939 2
      vertex 4.6194 1.91342 2
      vertex 4.15735 2.77785 2
    endloop
  endfacet
  facet normal -0 0 1
    outer loop
      vertex 3.43275 -0.682816 2
      vertex 4.90393 -0.975451 2
      vertex 3.5 0 2
    endloop
  endfacet
  facet normal 0 0 1
    outer loop
      vertex 2.91014 1.9445 2
      vertex 4.15735 2.77785 2
      vertex 3.53553 3.53553 2
    endloop
  endfacet
  facet normal 0 0 1
    outer loop
      vertex 4.90393 -0.975451 2
      vertex 3.43275 -0.682816 2
      vertex 4.6194 -1.91342 2
    endloop
  endfacet
  facet normal -0 0 1
    outer loop
      vertex 3.23358 -1.33939 2
      vertex 4.6194 -1.91342 2
      vertex 3.43275 -0.682816 2
    endloop
  endfacet
  facet normal 0 0 1
    outer loop
      vertex 4.90393 0.975451 2
      vertex 3.43275 0.682816 2
      vertex 3.5 0 2
    endloop
  endfacet
  facet normal 0 0 1
    outer loop
      vertex 4.6194 1.91342 2
      vertex 3.23358 1.33939 2
      vertex 3.43275 0.682816 2
    endloop
  endfacet
  facet normal 0 0 1
    outer loop
      vertex 4.15735 2.77785 2
      vertex 2.91014 1.9445 2
      vertex 3.23358 1.33939 2
    endloop
  endfacet
  facet normal 0 0 1
    outer loop
      vertex 2.47487 2.47487 2
      vertex 3.53553 3.53553 2
      vertex 2.77785 4.15735 2
    endloop
  endfacet
  facet normal 0 0 1
    outer loop
      vertex 3.53553 3.53553 2
      vertex 2.47487 2.47487 2
      vertex 2.91014 1.9445 2
    endloop
  endfacet
  facet normal 0 0 1
    outer loop
      vertex 2.77785 4.15735 2
      vertex 1.9445 2.91014 2
      vertex 2.47487 2.47487 2
    endloop
  endfacet
  facet normal 0 0 1
    outer loop
      vertex 1.91342 4.6194 2
      vertex 1.9445 2.91014 2
      vertex 2.77785 4.15735 2
    endloop
  endfacet
  facet normal 0 0 1
    outer loop
      vertex 1.91342 4.6194 2
      vertex 1.33939 3.23358 2
      vertex 1.9445 2.91014 2
    endloop
  endfacet
  facet normal 0 0 1
    outer loop
      vertex 0.975451 4.90393 2
      vertex 1.33939 3.23358 2
      vertex 1.91342 4.6194 2
    endloop
  endfacet
  facet normal 0 0 1
    outer loop
      vertex 0.975451 4.90393 2
      vertex 0.682816 3.43275 2
      vertex 1.33939 3.23358 2
    endloop
  endfacet
  facet normal 0 0 1
    outer loop
      vertex 0 5 2
      vertex 0.682816 3.43275 2
      vertex 0.975451 4.90393 2
    endloop
  endfacet
  facet normal 0 0 1
    outer loop
      vertex 0 5 2
      vertex 0 3.5 2
      vertex 0.682816 3.43275 2
    endloop
  endfacet
  facet normal 0 0 1
    outer loop
      vertex 0 5 2
      vertex -0.682816 3.43275 2
      vertex 0 3.5 2
    endloop
  endfacet
  facet normal -0 0 1
    outer loop
      vertex -0.975451 4.90393 2
      vertex -0.682816 3.43275 2
      vertex 0 5 2
    endloop
  endfacet
  facet normal 0 0 1
    outer loop
      vertex -0.975451 4.90393 2
      vertex -1.33939 3.23358 2
      vertex -0.682816 3.43275 2
    endloop
  endfacet
  facet normal -0 0 1
    outer loop
      vertex -1.91342 4.6194 2
      vertex -1.33939 3.23358 2
      vertex -0.975451 4.90393 2
    endloop
  endfacet
  facet normal 0 0 1
    outer loop
      vertex -1.91342 4.6194 2
      vertex -1.9445 2.91014 2
      vertex -1.33939 3.23358 2
    endloop
  endfacet
  facet normal -0 0 1
    outer loop
      vertex -2.77785 4.15735 2
      vertex -1.9445 2.91014 2
      vertex -1.91342 4.6194 2
    endloop
  endfacet
  facet normal 0 0 1
    outer loop
      vertex -1.9445 2.91014 2
      vertex -2.77785 4.15735 2
      vertex -2.47487 2.47487 2
    endloop
  endfacet
  facet normal -0 0 1
    outer loop
      vertex -3.53553 3.53553 2
      vertex -2.47487 2.47487 2
      vertex -2.77785 4.15735 2
    endloop
  endfacet
  facet normal 0 0 1
    outer loop
      vertex -2.47487 2.47487 2
      vertex -3.53553 3.53553 2
      vertex -2.91014 1.9445 2
    endloop
  endfacet
  facet normal -0 0 1
    outer loop
      vertex -4.15735 2.77785 2
      vertex -2.91014 1.9445 2
      vertex -3.53553 3.53553 2
    endloop
  endfacet
  facet normal -0 0 1
    outer loop
      vertex -4.6194 1.91342 2
      vertex -3.23358 1.33939 2
      vertex -4.15735 2.77785 2
    endloop
  endfacet
  facet normal 0 0 1
    outer loop
      vertex -2.91014 1.9445 2
      vertex -4.15735 2.77785 2
      vertex -3.23358 1.33939 2
    endloop
  endfacet
  facet normal 0 0 1
    outer loop
      vertex 4.6194 -1.91342 2
      vertex 3.23358 -1.33939 2
      vertex 4.15735 -2.77785 2
    endloop
  endfacet
  facet normal -0 0 1
    outer loop
      vertex 2.91014 -1.9445 2
      vertex 4.15735 -2.77785 2
      vertex 3.23358 -1.33939 2
    endloop
  endfacet
  facet normal 0 0 1
    outer loop
      vertex 4.15735 -2.77785 2
      vertex 2.91014 -1.9445 2
      vertex 3.53553 -3.53553 2
    endloop
  endfacet
  facet normal -0 0 1
    outer loop
      vertex 2.47487 -2.47487 2
      vertex 3.53553 -3.53553 2
      vertex 2.91014 -1.9445 2
    endloop
  endfacet
  facet normal 0 0 1
    outer loop
      vertex 3.53553 -3.53553 2
      vertex 2.47487 -2.47487 2
      vertex 2.77785 -4.15735 2
    endloop
  endfacet
  facet normal -0 0 1
    outer loop
      vertex 1.9445 -2.91014 2
      vertex 2.77785 -4.15735 2
      vertex 2.47487 -2.47487 2
    endloop
  endfacet
  facet normal 0 0 1
    outer loop
      vertex 1.9445 -2.91014 2
      vertex 1.91342 -4.6194 2
      vertex 2.77785 -4.15735 2
    endloop
  endfacet
  facet normal -0 0 1
    outer loop
      vertex 1.33939 -3.23358 2
      vertex 1.91342 -4.6194 2
      vertex 1.9445 -2.91014 2
    endloop
  endfacet
  facet normal 0 0 1
    outer loop
      vertex 1.33939 -3.23358 2
      vertex 0.975451 -4.90393 2
      vertex 1.91342 -4.6194 2
    endloop
  endfacet
  facet normal -0 0 1
    outer loop
      vertex 0.682816 -3.43275 2
      vertex 0.975451 -4.90393 2
      vertex 1.33939 -3.23358 2
    endloop
  endfacet
  facet normal -0 0 1
    outer loop
      vertex 0 -3.5 2
      vertex 0.975451 -4.90393 2
      vertex 0.682816 -3.43275 2
    endloop
  endfacet
  facet normal 0 0 1
    outer loop
      vertex 0 -3.5 2
      vertex 0 -5 2
      vertex 0.975451 -4.90393 2
    endloop
  endfacet
  facet normal 0 0 1
    outer loop
      vertex -0.682816 -3.43275 2
      vertex 0 -5 2
      vertex 0 -3.5 2
    endloop
  endfacet
  facet normal 0 0 1
    outer loop
      vertex -0.682816 -3.43275 2
      vertex -0.975451 -4.90393 2
      vertex 0 -5 2
    endloop
  endfacet
  facet normal 0 0 1
    outer loop
      vertex -1.33939 -3.23358 2
      vertex -0.975451 -4.90393 2
      vertex -0.682816 -3.43275 2
    endloop
  endfacet
  facet normal 0 0 1
    outer loop
      vertex -1.33939 -3.23358 2
      vertex -1.91342 -4.6194 2
      vertex -0.975451 -4.90393 2
    endloop
  endfacet
  facet normal 0 0 1
    outer loop
      vertex -1.9445 -2.91014 2
      vertex -1.91342 -4.6194 2
      vertex -1.33939 -3.23358 2
    endloop
  endfacet
  facet normal 0 0 1
    outer loop
      vertex -2.77785 -4.15735 2
      vertex -1.9445 -2.91014 2
      vertex -2.47487 -2.47487 2
    endloop
  endfacet
  facet normal 0 0 1
    outer loop
      vertex -1.9445 -2.91014 2
      vertex -2.77785 -4.15735 2
      vertex -1.91342 -4.6194 2
    endloop
  endfacet
  facet normal 0 0 1
    outer loop
      vertex -3.53553 -3.53553 2
      vertex -2.47487 -2.47487 2
      vertex -2.91014 -1.9445 2
    endloop
  endfacet
  facet normal 0 0 1
    outer loop
      vertex -4.15735 -2.77785 2
      vertex -2.91014 -1.9445 2
      vertex -3.23358 -1.33939 2
    endloop
  endfacet
  facet normal 0 0 1
    outer loop
      vertex -4.6194 -1.91342 2
      vertex -3.23358 -1.33939 2
      vertex -3.43275 -0.682816 2
    endloop
  endfacet
  facet normal 0 0 1
    outer loop
      vertex -2.47487 -2.47487 2
      vertex -3.53553 -3.53553 2
      vertex -2.77785 -4.15735 2
    endloop
  endfacet
  facet normal 0 0 1
    outer loop
      vertex -4.90393 -0.975451 2
      vertex -3.43275 -0.682816 2
      vertex -3.5 0 2
    endloop
  endfacet
  facet normal 0 0 1
    outer loop
      vertex -3.23358 1.33939 2
      vertex -4.6194 1.91342 2
      vertex -3.43275 0.682816 2
    endloop
  endfacet
  facet normal -0 0 1
    outer loop
      vertex -4.90393 0.975451 2
      vertex -3.43275 0.682816 2
      vertex -4.6194 1.91342 2
    endloop
  endfacet
  facet normal 0 0 1
    outer loop
      vertex -2.91014 -1.9445 2
      vertex -4.15735 -2.77785 2
      vertex -3.53553 -3.53553 2
    endloop
  endfacet
  facet normal 0 0 1
    outer loop
      vertex -3.43275 0.682816 2
      vertex -4.90393 0.975451 2
      vertex -3.5 0 2
    endloop
  endfacet
  facet normal 0 0 1
    outer loop
      vertex -3.23358 -1.33939 2
      vertex -4.6194 -1.91342 2
      vertex -4.15735 -2.77785 2
    endloop
  endfacet
  facet normal 0 0 1
    outer loop
      vertex -5 0 2
      vertex -3.5 0 2
      vertex -4.90393 0.975451 2
    endloop
  endfacet
  facet normal 0 0 1
    outer loop
      vertex -3.43275 -0.682816 2
      vertex -4.90393 -0.975451 2
      vertex -4.6194 -1.91342 2
    endloop
  endfacet
  facet normal 0 0 1
    outer loop
      vertex -3.5 0 2
      vertex -5 0 2
      vertex -4.90393 -0.975451 2
    endloop
  endfacet
  facet normal 0.995185 -0.0980136 0
    outer loop
      vertex 4.90393 -0.975451 2
      vertex 5 0 0
      vertex 5 0 2
    endloop
  endfacet
  facet normal 0.995185 -0.0980136 0
    outer loop
      vertex 5 0 0
      vertex 4.90393 -0.975451 2
      vertex 4.90393 -0.975451 0
    endloop
  endfacet
  facet normal 0.995185 0.098015 0
    outer loop
      vertex 3.5 0 15
      vertex 3.43275 0.682816 2
      vertex 3.43275 0.682816 15
    endloop
  endfacet
  facet normal 0.995185 0.098015 0
    outer loop
      vertex 3.43275 0.682816 2
      vertex 3.5 0 15
      vertex 3.5 0 2
    endloop
  endfacet
  facet normal -0.995185 0.098015 0
    outer loop
      vertex -3.5 0 2
      vertex -3.43275 0.682816 15
      vertex -3.43275 0.682816 2
    endloop
  endfacet
  facet normal -0.995185 0.098015 0
    outer loop
      vertex -3.43275 0.682816 15
      vertex -3.5 0 2
      vertex -3.5 0 15
    endloop
  endfacet
  facet normal 0.098015 0.995185 -0
    outer loop
      vertex 0.682816 3.43275 2
      vertex 0 3.5 15
      vertex 0.682816 3.43275 15
    endloop
  endfacet
  facet normal 0.098015 0.995185 0
    outer loop
      vertex 0 3.5 15
      vertex 0.682816 3.43275 2
      vertex 0 3.5 2
    endloop
  endfacet
  facet normal -0.098015 -0.995185 0
    outer loop
      vertex -0.682816 -3.43275 2
      vertex 0 -3.5 15
      vertex -0.682816 -3.43275 15
    endloop
  endfacet
  facet normal -0.098015 -0.995185 -0
    outer loop
      vertex 0 -3.5 15
      vertex -0.682816 -3.43275 2
      vertex 0 -3.5 2
    endloop
  endfacet
  facet normal 0.773006 0.634399 0
    outer loop
      vertex 2.91014 1.9445 15
      vertex 2.47487 2.47487 2
      vertex 2.47487 2.47487 15
    endloop
  endfacet
  facet normal 0.773006 0.634399 0
    outer loop
      vertex 2.47487 2.47487 2
      vertex 2.91014 1.9445 15
      vertex 2.91014 1.9445 2
    endloop
  endfacet
  facet normal 0.95694 0.290285 0
    outer loop
      vertex 3.43275 0.682816 15
      vertex 3.23358 1.33939 2
      vertex 3.23358 1.33939 15
    endloop
  endfacet
  facet normal 0.95694 0.290285 0
    outer loop
      vertex 3.23358 1.33939 2
      vertex 3.43275 0.682816 15
      vertex 3.43275 0.682816 2
    endloop
  endfacet
  facet normal -0.634399 0.773006 0
    outer loop
      vertex -1.9445 2.91014 2
      vertex -2.47487 2.47487 15
      vertex -1.9445 2.91014 15
    endloop
  endfacet
  facet normal -0.634399 0.773006 0
    outer loop
      vertex -2.47487 2.47487 15
      vertex -1.9445 2.91014 2
      vertex -2.47487 2.47487 2
    endloop
  endfacet
  facet normal -0.290285 0.95694 0
    outer loop
      vertex -0.682816 3.43275 2
      vertex -1.33939 3.23358 15
      vertex -0.682816 3.43275 15
    endloop
  endfacet
  facet normal -0.290285 0.95694 0
    outer loop
      vertex -1.33939 3.23358 15
      vertex -0.682816 3.43275 2
      vertex -1.33939 3.23358 2
    endloop
  endfacet
  facet normal 0.634399 -0.773006 0
    outer loop
      vertex 1.9445 -2.91014 2
      vertex 2.47487 -2.47487 15
      vertex 1.9445 -2.91014 15
    endloop
  endfacet
  facet normal 0.634399 -0.773006 0
    outer loop
      vertex 2.47487 -2.47487 15
      vertex 1.9445 -2.91014 2
      vertex 2.47487 -2.47487 2
    endloop
  endfacet
  facet normal 0.88192 0.471399 0
    outer loop
      vertex 3.23358 1.33939 15
      vertex 2.91014 1.9445 2
      vertex 2.91014 1.9445 15
    endloop
  endfacet
  facet normal 0.88192 0.471399 0
    outer loop
      vertex 2.91014 1.9445 2
      vertex 3.23358 1.33939 15
      vertex 3.23358 1.33939 2
    endloop
  endfacet
  facet normal 0.471399 0.88192 -0
    outer loop
      vertex 1.9445 2.91014 2
      vertex 1.33939 3.23358 15
      vertex 1.9445 2.91014 15
    endloop
  endfacet
  facet normal 0.471399 0.88192 0
    outer loop
      vertex 1.33939 3.23358 15
      vertex 1.9445 2.91014 2
      vertex 1.33939 3.23358 2
    endloop
  endfacet
  facet normal 0.290285 0.95694 -0
    outer loop
      vertex 1.33939 3.23358 2
      vertex 0.682816 3.43275 15
      vertex 1.33939 3.23358 15
    endloop
  endfacet
  facet normal 0.290285 0.95694 0
    outer loop
      vertex 0.682816 3.43275 15
      vertex 1.33939 3.23358 2
      vertex 0.682816 3.43275 2
    endloop
  endfacet
  facet normal 0.634399 0.773006 -0
    outer loop
      vertex 2.47487 2.47487 2
      vertex 1.9445 2.91014 15
      vertex 2.47487 2.47487 15
    endloop
  endfacet
  facet normal 0.634399 0.773006 0
    outer loop
      vertex 1.9445 2.91014 15
      vertex 2.47487 2.47487 2
      vertex 1.9445 2.91014 2
    endloop
  endfacet
  facet normal -0.88192 0.471399 0
    outer loop
      vertex -3.23358 1.33939 2
      vertex -2.91014 1.9445 15
      vertex -2.91014 1.9445 2
    endloop
  endfacet
  facet normal -0.88192 0.471399 0
    outer loop
      vertex -2.91014 1.9445 15
      vertex -3.23358 1.33939 2
      vertex -3.23358 1.33939 15
    endloop
  endfacet
  facet normal -0.773006 0.634399 0
    outer loop
      vertex -2.91014 1.9445 2
      vertex -2.47487 2.47487 15
      vertex -2.47487 2.47487 2
    endloop
  endfacet
  facet normal -0.773006 0.634399 0
    outer loop
      vertex -2.47487 2.47487 15
      vertex -2.91014 1.9445 2
      vertex -2.91014 1.9445 15
    endloop
  endfacet
  facet normal -0.95694 0.290285 0
    outer loop
      vertex -3.43275 0.682816 2
      vertex -3.23358 1.33939 15
      vertex -3.23358 1.33939 2
    endloop
  endfacet
  facet normal -0.95694 0.290285 0
    outer loop
      vertex -3.23358 1.33939 15
      vertex -3.43275 0.682816 2
      vertex -3.43275 0.682816 15
    endloop
  endfacet
  facet normal 0 0 1
    outer loop
      vertex 2.5 0 15
      vertex 3.5 0 15
      vertex 3.43275 0.682816 15
    endloop
  endfacet
  facet normal 0 0 1
    outer loop
      vertex 2.45196 0.487725 15
      vertex 3.43275 0.682816 15
      vertex 3.23358 1.33939 15
    endloop
  endfacet
  facet normal 0 0 1
    outer loop
      vertex 3.5 0 15
      vertex 2.5 0 15
      vertex 3.43275 -0.682816 15
    endloop
  endfacet
  facet normal 0 0 1
    outer loop
      vertex 2.3097 0.956708 15
      vertex 3.23358 1.33939 15
      vertex 2.91014 1.9445 15
    endloop
  endfacet
  facet normal -0 0 1
    outer loop
      vertex 2.45196 -0.487725 15
      vertex 3.43275 -0.682816 15
      vertex 2.5 0 15
    endloop
  endfacet
  facet normal 0 0 1
    outer loop
      vertex 3.43275 -0.682816 15
      vertex 2.45196 -0.487725 15
      vertex 3.23358 -1.33939 15
    endloop
  endfacet
  facet normal 0 0 1
    outer loop
      vertex 2.07867 1.38893 15
      vertex 2.91014 1.9445 15
      vertex 2.47487 2.47487 15
    endloop
  endfacet
  facet normal 0 0 1
    outer loop
      vertex 3.43275 0.682816 15
      vertex 2.45196 0.487725 15
      vertex 2.5 0 15
    endloop
  endfacet
  facet normal 0 0 1
    outer loop
      vertex 3.23358 1.33939 15
      vertex 2.3097 0.956708 15
      vertex 2.45196 0.487725 15
    endloop
  endfacet
  facet normal 0 0 1
    outer loop
      vertex 2.91014 1.9445 15
      vertex 2.07867 1.38893 15
      vertex 2.3097 0.956708 15
    endloop
  endfacet
  facet normal 0 0 1
    outer loop
      vertex 1.76777 1.76777 15
      vertex 2.47487 2.47487 15
      vertex 1.9445 2.91014 15
    endloop
  endfacet
  facet normal 0 0 1
    outer loop
      vertex 2.47487 2.47487 15
      vertex 1.76777 1.76777 15
      vertex 2.07867 1.38893 15
    endloop
  endfacet
  facet normal 0 0 1
    outer loop
      vertex 1.9445 2.91014 15
      vertex 1.38893 2.07867 15
      vertex 1.76777 1.76777 15
    endloop
  endfacet
  facet normal 0 0 1
    outer loop
      vertex 1.33939 3.23358 15
      vertex 1.38893 2.07867 15
      vertex 1.9445 2.91014 15
    endloop
  endfacet
  facet normal 0 0 1
    outer loop
      vertex 1.33939 3.23358 15
      vertex 0.956708 2.3097 15
      vertex 1.38893 2.07867 15
    endloop
  endfacet
  facet normal 0 0 1
    outer loop
      vertex 0.682816 3.43275 15
      vertex 0.956708 2.3097 15
      vertex 1.33939 3.23358 15
    endloop
  endfacet
  facet normal 0 0 1
    outer loop
      vertex 0.682816 3.43275 15
      vertex 0.487725 2.45196 15
      vertex 0.956708 2.3097 15
    endloop
  endfacet
  facet normal 0 0 1
    outer loop
      vertex 0 3.5 15
      vertex 0.487725 2.45196 15
      vertex 0.682816 3.43275 15
    endloop
  endfacet
  facet normal 0 0 1
    outer loop
      vertex 0 3.5 15
      vertex 0 2.5 15
      vertex 0.487725 2.45196 15
    endloop
  endfacet
  facet normal 0 0 1
    outer loop
      vertex 0 3.5 15
      vertex -0.487725 2.45196 15
      vertex 0 2.5 15
    endloop
  endfacet
  facet normal -0 0 1
    outer loop
      vertex -0.682816 3.43275 15
      vertex -0.487725 2.45196 15
      vertex 0 3.5 15
    endloop
  endfacet
  facet normal 0 0 1
    outer loop
      vertex -0.682816 3.43275 15
      vertex -0.956708 2.3097 15
      vertex -0.487725 2.45196 15
    endloop
  endfacet
  facet normal -0 0 1
    outer loop
      vertex -1.33939 3.23358 15
      vertex -0.956708 2.3097 15
      vertex -0.682816 3.43275 15
    endloop
  endfacet
  facet normal 0 0 1
    outer loop
      vertex -1.33939 3.23358 15
      vertex -1.38893 2.07867 15
      vertex -0.956708 2.3097 15
    endloop
  endfacet
  facet normal -0 0 1
    outer loop
      vertex -1.9445 2.91014 15
      vertex -1.38893 2.07867 15
      vertex -1.33939 3.23358 15
    endloop
  endfacet
  facet normal 0 0 1
    outer loop
      vertex -1.38893 2.07867 15
      vertex -1.9445 2.91014 15
      vertex -1.76777 1.76777 15
    endloop
  endfacet
  facet normal -0 0 1
    outer loop
      vertex -2.47487 2.47487 15
      vertex -1.76777 1.76777 15
      vertex -1.9445 2.91014 15
    endloop
  endfacet
  facet normal 0 0 1
    outer loop
      vertex -1.76777 1.76777 15
      vertex -2.47487 2.47487 15
      vertex -2.07867 1.38893 15
    endloop
  endfacet
  facet normal -0 0 1
    outer loop
      vertex -2.91014 1.9445 15
      vertex -2.07867 1.38893 15
      vertex -2.47487 2.47487 15
    endloop
  endfacet
  facet normal 0 0 1
    outer loop
      vertex -2.07867 1.38893 15
      vertex -2.91014 1.9445 15
      vertex -2.3097 0.956708 15
    endloop
  endfacet
  facet normal -0 0 1
    outer loop
      vertex -3.23358 1.33939 15
      vertex -2.3097 0.956708 15
      vertex -2.91014 1.9445 15
    endloop
  endfacet
  facet normal 0 0 1
    outer loop
      vertex -2.3097 0.956708 15
      vertex -3.23358 1.33939 15
      vertex -2.45196 0.487725 15
    endloop
  endfacet
  facet normal -0 0 1
    outer loop
      vertex 2.3097 -0.956708 15
      vertex 3.23358 -1.33939 15
      vertex 2.45196 -0.487725 15
    endloop
  endfacet
  facet normal 0 0 1
    outer loop
      vertex 3.23358 -1.33939 15
      vertex 2.3097 -0.956708 15
      vertex 2.91014 -1.9445 15
    endloop
  endfacet
  facet normal -0 0 1
    outer loop
      vertex 2.07867 -1.38893 15
      vertex 2.91014 -1.9445 15
      vertex 2.3097 -0.956708 15
    endloop
  endfacet
  facet normal 0 0 1
    outer loop
      vertex 2.91014 -1.9445 15
      vertex 2.07867 -1.38893 15
      vertex 2.47487 -2.47487 15
    endloop
  endfacet
  facet normal -0 0 1
    outer loop
      vertex 1.76777 -1.76777 15
      vertex 2.47487 -2.47487 15
      vertex 2.07867 -1.38893 15
    endloop
  endfacet
  facet normal 0 0 1
    outer loop
      vertex 2.47487 -2.47487 15
      vertex 1.76777 -1.76777 15
      vertex 1.9445 -2.91014 15
    endloop
  endfacet
  facet normal -0 0 1
    outer loop
      vertex 1.38893 -2.07867 15
      vertex 1.9445 -2.91014 15
      vertex 1.76777 -1.76777 15
    endloop
  endfacet
  facet normal 0 0 1
    outer loop
      vertex 1.38893 -2.07867 15
      vertex 1.33939 -3.23358 15
      vertex 1.9445 -2.91014 15
    endloop
  endfacet
  facet normal -0 0 1
    outer loop
      vertex 0.956708 -2.3097 15
      vertex 1.33939 -3.23358 15
      vertex 1.38893 -2.07867 15
    endloop
  endfacet
  facet normal 0 0 1
    outer loop
      vertex 0.956708 -2.3097 15
      vertex 0.682816 -3.43275 15
      vertex 1.33939 -3.23358 15
    endloop
  endfacet
  facet normal -0 0 1
    outer loop
      vertex 0.487725 -2.45196 15
      vertex 0.682816 -3.43275 15
      vertex 0.956708 -2.3097 15
    endloop
  endfacet
  facet normal -0 0 1
    outer loop
      vertex 0 -2.5 15
      vertex 0.682816 -3.43275 15
      vertex 0.487725 -2.45196 15
    endloop
  endfacet
  facet normal 0 0 1
    outer loop
      vertex 0 -2.5 15
      vertex 0 -3.5 15
      vertex 0.682816 -3.43275 15
    endloop
  endfacet
  facet normal 0 0 1
    outer loop
      vertex -0.487725 -2.45196 15
      vertex 0 -3.5 15
      vertex 0 -2.5 15
    endloop
  endfacet
  facet normal 0 0 1
    outer loop
      vertex -0.487725 -2.45196 15
      vertex -0.682816 -3.43275 15
      vertex 0 -3.5 15
    endloop
  endfacet
  facet normal 0 0 1
    outer loop
      vertex -0.956708 -2.3097 15
      vertex -0.682816 -3.43275 15
      vertex -0.487725 -2.45196 15
    endloop
  endfacet
  facet normal 0 0 1
    outer loop
      vertex -0.956708 -2.3097 15
      vertex -1.33939 -3.23358 15
      vertex -0.682816 -3.43275 15
    endloop
  endfacet
  facet normal 0 0 1
    outer loop
      vertex -1.38893 -2.07867 15
      vertex -1.33939 -3.23358 15
      vertex -0.956708 -2.3097 15
    endloop
  endfacet
  facet normal 0 0 1
    outer loop
      vertex -1.9445 -2.91014 15
      vertex -1.38893 -2.07867 15
      vertex -1.76777 -1.76777 15
    endloop
  endfacet
  facet normal 0 0 1
    outer loop
      vertex -1.38893 -2.07867 15
      vertex -1.9445 -2.91014 15
      vertex -1.33939 -3.23358 15
    endloop
  endfacet
  facet normal 0 0 1
    outer loop
      vertex -2.47487 -2.47487 15
      vertex -1.76777 -1.76777 15
      vertex -2.07867 -1.38893 15
    endloop
  endfacet
  facet normal 0 0 1
    outer loop
      vertex -2.91014 -1.9445 15
      vertex -2.07867 -1.38893 15
      vertex -2.3097 -0.956708 15
    endloop
  endfacet
  facet normal 0 0 1
    outer loop
      vertex -3.23358 -1.33939 15
      vertex -2.3097 -0.956708 15
      vertex -2.45196 -0.487725 15
    endloop
  endfacet
  facet normal 0 0 1
    outer loop
      vertex -1.76777 -1.76777 15
      vertex -2.47487 -2.47487 15
      vertex -1.9445 -2.91014 15
    endloop
  endfacet
  facet normal 0 0 1
    outer loop
      vertex -3.43275 -0.682816 15
      vertex -2.45196 -0.487725 15
      vertex -2.5 0 15
    endloop
  endfacet
  facet normal -0 0 1
    outer loop
      vertex -3.43275 0.682816 15
      vertex -2.45196 0.487725 15
      vertex -3.23358 1.33939 15
    endloop
  endfacet
  facet normal 0 0 1
    outer loop
      vertex -2.07867 -1.38893 15
      vertex -2.91014 -1.9445 15
      vertex -2.47487 -2.47487 15
    endloop
  endfacet
  facet normal 0 0 1
    outer loop
      vertex -2.45196 0.487725 15
      vertex -3.43275 0.682816 15
      vertex -2.5 0 15
    endloop
  endfacet
  facet normal 0 0 1
    outer loop
      vertex -2.3097 -0.956708 15
      vertex -3.23358 -1.33939 15
      vertex -2.91014 -1.9445 15
    endloop
  endfacet
  facet normal 0 0 1
    outer loop
      vertex -3.5 0 15
      vertex -2.5 0 15
      vertex -3.43275 0.682816 15
    endloop
  endfacet
  facet normal 0 0 1
    outer loop
      vertex -2.45196 -0.487725 15
      vertex -3.43275 -0.682816 15
      vertex -3.23358 -1.33939 15
    endloop
  endfacet
  facet normal 0 0 1
    outer loop
      vertex -2.5 0 15
      vertex -3.5 0 15
      vertex -3.43275 -0.682816 15
    endloop
  endfacet
  facet normal -0.471399 0.88192 0
    outer loop
      vertex -1.33939 3.23358 2
      vertex -1.9445 2.91014 15
      vertex -1.33939 3.23358 15
    endloop
  endfacet
  facet normal -0.471399 0.88192 0
    outer loop
      vertex -1.9445 2.91014 15
      vertex -1.33939 3.23358 2
      vertex -1.9445 2.91014 2
    endloop
  endfacet
  facet normal -0.098015 0.995185 0
    outer loop
      vertex 0 3.5 2
      vertex -0.682816 3.43275 15
      vertex 0 3.5 15
    endloop
  endfacet
  facet normal -0.098015 0.995185 0
    outer loop
      vertex -0.682816 3.43275 15
      vertex 0 3.5 2
      vertex -0.682816 3.43275 2
    endloop
  endfacet
  facet normal 0.098015 -0.995185 0
    outer loop
      vertex 0 -3.5 2
      vertex 0.682816 -3.43275 15
      vertex 0 -3.5 15
    endloop
  endfacet
  facet normal 0.098015 -0.995185 0
    outer loop
      vertex 0.682816 -3.43275 15
      vertex 0 -3.5 2
      vertex 0.682816 -3.43275 2
    endloop
  endfacet
  facet normal 0.471399 -0.88192 0
    outer loop
      vertex 1.33939 -3.23358 2
      vertex 1.9445 -2.91014 15
      vertex 1.33939 -3.23358 15
    endloop
  endfacet
  facet normal 0.471399 -0.88192 0
    outer loop
      vertex 1.9445 -2.91014 15
      vertex 1.33939 -3.23358 2
      vertex 1.9445 -2.91014 2
    endloop
  endfacet
  facet normal -0.634399 -0.773006 0
    outer loop
      vertex -2.47487 -2.47487 2
      vertex -1.9445 -2.91014 15
      vertex -2.47487 -2.47487 15
    endloop
  endfacet
  facet normal -0.634399 -0.773006 -0
    outer loop
      vertex -1.9445 -2.91014 15
      vertex -2.47487 -2.47487 2
      vertex -1.9445 -2.91014 2
    endloop
  endfacet
  facet normal -0.290285 -0.95694 0
    outer loop
      vertex -1.33939 -3.23358 2
      vertex -0.682816 -3.43275 15
      vertex -1.33939 -3.23358 15
    endloop
  endfacet
  facet normal -0.290285 -0.95694 -0
    outer loop
      vertex -0.682816 -3.43275 15
      vertex -1.33939 -3.23358 2
      vertex -0.682816 -3.43275 2
    endloop
  endfacet
  facet normal -0.88192 -0.471399 0
    outer loop
      vertex -2.91014 -1.9445 2
      vertex -3.23358 -1.33939 15
      vertex -3.23358 -1.33939 2
    endloop
  endfacet
  facet normal -0.88192 -0.471399 0
    outer loop
      vertex -3.23358 -1.33939 15
      vertex -2.91014 -1.9445 2
      vertex -2.91014 -1.9445 15
    endloop
  endfacet
  facet normal -0.773006 -0.634399 0
    outer loop
      vertex -2.47487 -2.47487 2
      vertex -2.91014 -1.9445 15
      vertex -2.91014 -1.9445 2
    endloop
  endfacet
  facet normal -0.773006 -0.634399 0
    outer loop
      vertex -2.91014 -1.9445 15
      vertex -2.47487 -2.47487 2
      vertex -2.47487 -2.47487 15
    endloop
  endfacet
  facet normal -0.995185 -0.098015 0
    outer loop
      vertex -3.43275 -0.682816 2
      vertex -3.5 0 15
      vertex -3.5 0 2
    endloop
  endfacet
  facet normal -0.995185 -0.098015 0
    outer loop
      vertex -3.5 0 15
      vertex -3.43275 -0.682816 2
      vertex -3.43275 -0.682816 15
    endloop
  endfacet
  facet normal 0.290285 -0.95694 0
    outer loop
      vertex 0.682816 -3.43275 2
      vertex 1.33939 -3.23358 15
      vertex 0.682816 -3.43275 15
    endloop
  endfacet
  facet normal 0.290285 -0.95694 0
    outer loop
      vertex 1.33939 -3.23358 15
      vertex 0.682816 -3.43275 2
      vertex 1.33939 -3.23358 2
    endloop
  endfacet
  facet normal 0.88192 -0.471399 0
    outer loop
      vertex 2.91014 -1.9445 15
      vertex 3.23358 -1.33939 2
      vertex 3.23358 -1.33939 15
    endloop
  endfacet
  facet normal 0.88192 -0.471399 0
    outer loop
      vertex 3.23358 -1.33939 2
      vertex 2.91014 -1.9445 15
      vertex 2.91014 -1.9445 2
    endloop
  endfacet
  facet normal 0.773006 -0.634399 0
    outer loop
      vertex 2.47487 -2.47487 15
      vertex 2.91014 -1.9445 2
      vertex 2.91014 -1.9445 15
    endloop
  endfacet
  facet normal 0.773006 -0.634399 0
    outer loop
      vertex 2.91014 -1.9445 2
      vertex 2.47487 -2.47487 15
      vertex 2.47487 -2.47487 2
    endloop
  endfacet
  facet normal 0.95694 -0.290285 0
    outer loop
      vertex 3.23358 -1.33939 15
      vertex 3.43275 -0.682816 2
      vertex 3.43275 -0.682816 15
    endloop
  endfacet
  facet normal 0.95694 -0.290285 0
    outer loop
      vertex 3.43275 -0.682816 2
      vertex 3.23358 -1.33939 15
      vertex 3.23358 -1.33939 2
    endloop
  endfacet
  facet normal -0.471399 -0.88192 0
    outer loop
      vertex -1.9445 -2.91014 2
      vertex -1.33939 -3.23358 15
      vertex -1.9445 -2.91014 15
    endloop
  endfacet
  facet normal -0.471399 -0.88192 -0
    outer loop
      vertex -1.33939 -3.23358 15
      vertex -1.9445 -2.91014 2
      vertex -1.33939 -3.23358 2
    endloop
  endfacet
  facet normal -0.95694 -0.290285 0
    outer loop
      vertex -3.23358 -1.33939 2
      vertex -3.43275 -0.682816 15
      vertex -3.43275 -0.682816 2
    endloop
  endfacet
  facet normal -0.95694 -0.290285 0
    outer loop
      vertex -3.43275 -0.682816 15
      vertex -3.23358 -1.33939 2
      vertex -3.23358 -1.33939 15
    endloop
  endfacet
  facet normal 0.995185 -0.098015 0
    outer loop
      vertex 3.43275 -0.682816 15
      vertex 3.5 0 2
      vertex 3.5 0 15
    endloop
  endfacet
  facet normal 0.995185 -0.098015 0
    outer loop
      vertex 3.5 0 2
      vertex 3.43275 -0.682816 15
      vertex 3.43275 -0.682816 2
    endloop
  endfacet
  facet normal -0.634386 -0.773016 0
    outer loop
      vertex 1.38893 2.07867 2
      vertex 1.76777 1.76777 15
      vertex 1.38893 2.07867 15
    endloop
  endfacet
  facet normal -0.634386 -0.773016 -0
    outer loop
      vertex 1.76777 1.76777 15
      vertex 1.38893 2.07867 2
      vertex 1.76777 1.76777 2
    endloop
  endfacet
  facet normal 0.956943 -0.290276 0
    outer loop
      vertex -2.45196 0.487725 15
      vertex -2.3097 0.956708 2
      vertex -2.3097 0.956708 15
    endloop
  endfacet
  facet normal 0.956943 -0.290276 0
    outer loop
      vertex -2.3097 0.956708 2
      vertex -2.45196 0.487725 15
      vertex -2.45196 0.487725 2
    endloop
  endfacet
  facet normal -0.995184 0.0980238 0
    outer loop
      vertex 2.45196 -0.487725 2
      vertex 2.5 0 15
      vertex 2.5 0 2
    endloop
  endfacet
  facet normal -0.995184 0.0980238 0
    outer loop
      vertex 2.5 0 15
      vertex 2.45196 -0.487725 2
      vertex 2.45196 -0.487725 15
    endloop
  endfacet
  facet normal 0.290276 0.956943 -0
    outer loop
      vertex -0.487725 -2.45196 2
      vertex -0.956708 -2.3097 15
      vertex -0.487725 -2.45196 15
    endloop
  endfacet
  facet normal 0.290276 0.956943 0
    outer loop
      vertex -0.956708 -2.3097 15
      vertex -0.487725 -2.45196 2
      vertex -0.956708 -2.3097 2
    endloop
  endfacet
  facet normal -0.773016 -0.634386 0
    outer loop
      vertex 2.07867 1.38893 2
      vertex 1.76777 1.76777 15
      vertex 1.76777 1.76777 2
    endloop
  endfacet
  facet normal -0.773016 -0.634386 0
    outer loop
      vertex 1.76777 1.76777 15
      vertex 2.07867 1.38893 2
      vertex 2.07867 1.38893 15
    endloop
  endfacet
  facet normal 0.290276 -0.956943 0
    outer loop
      vertex -0.956708 2.3097 2
      vertex -0.487725 2.45196 15
      vertex -0.956708 2.3097 15
    endloop
  endfacet
  facet normal 0.290276 -0.956943 0
    outer loop
      vertex -0.487725 2.45196 15
      vertex -0.956708 2.3097 2
      vertex -0.487725 2.45196 2
    endloop
  endfacet
  facet normal 0.881919 -0.471401 0
    outer loop
      vertex -2.3097 0.956708 15
      vertex -2.07867 1.38893 2
      vertex -2.07867 1.38893 15
    endloop
  endfacet
  facet normal 0.881919 -0.471401 0
    outer loop
      vertex -2.07867 1.38893 2
      vertex -2.3097 0.956708 15
      vertex -2.3097 0.956708 2
    endloop
  endfacet
  facet normal -0.634386 0.773016 0
    outer loop
      vertex 1.76777 -1.76777 2
      vertex 1.38893 -2.07867 15
      vertex 1.76777 -1.76777 15
    endloop
  endfacet
  facet normal -0.634386 0.773016 0
    outer loop
      vertex 1.38893 -2.07867 15
      vertex 1.76777 -1.76777 2
      vertex 1.38893 -2.07867 2
    endloop
  endfacet
  facet normal 0.881919 0.471401 0
    outer loop
      vertex -2.07867 -1.38893 15
      vertex -2.3097 -0.956708 2
      vertex -2.3097 -0.956708 15
    endloop
  endfacet
  facet normal 0.881919 0.471401 0
    outer loop
      vertex -2.3097 -0.956708 2
      vertex -2.07867 -1.38893 15
      vertex -2.07867 -1.38893 2
    endloop
  endfacet
  facet normal -0.881919 -0.471401 0
    outer loop
      vertex 2.3097 0.956708 2
      vertex 2.07867 1.38893 15
      vertex 2.07867 1.38893 2
    endloop
  endfacet
  facet normal -0.881919 -0.471401 0
    outer loop
      vertex 2.07867 1.38893 15
      vertex 2.3097 0.956708 2
      vertex 2.3097 0.956708 15
    endloop
  endfacet
  facet normal -0.471401 -0.881919 0
    outer loop
      vertex 0.956708 2.3097 2
      vertex 1.38893 2.07867 15
      vertex 0.956708 2.3097 15
    endloop
  endfacet
  facet normal -0.471401 -0.881919 -0
    outer loop
      vertex 1.38893 2.07867 15
      vertex 0.956708 2.3097 2
      vertex 1.38893 2.07867 2
    endloop
  endfacet
  facet normal -0.0980238 -0.995184 0
    outer loop
      vertex 0 2.5 2
      vertex 0.487725 2.45196 15
      vertex 0 2.5 15
    endloop
  endfacet
  facet normal -0.0980238 -0.995184 -0
    outer loop
      vertex 0.487725 2.45196 15
      vertex 0 2.5 2
      vertex 0.487725 2.45196 2
    endloop
  endfacet
  facet normal 0.995184 -0.0980238 0
    outer loop
      vertex -2.5 0 15
      vertex -2.45196 0.487725 2
      vertex -2.45196 0.487725 15
    endloop
  endfacet
  facet normal 0.995184 -0.0980238 0
    outer loop
      vertex -2.45196 0.487725 2
      vertex -2.5 0 15
      vertex -2.5 0 2
    endloop
  endfacet
  facet normal 0.773016 -0.634386 0
    outer loop
      vertex -2.07867 1.38893 15
      vertex -1.76777 1.76777 2
      vertex -1.76777 1.76777 15
    endloop
  endfacet
  facet normal 0.773016 -0.634386 0
    outer loop
      vertex -1.76777 1.76777 2
      vertex -2.07867 1.38893 15
      vertex -2.07867 1.38893 2
    endloop
  endfacet
  facet normal 0.471401 -0.881919 0
    outer loop
      vertex -1.38893 2.07867 2
      vertex -0.956708 2.3097 15
      vertex -1.38893 2.07867 15
    endloop
  endfacet
  facet normal 0.471401 -0.881919 0
    outer loop
      vertex -0.956708 2.3097 15
      vertex -1.38893 2.07867 2
      vertex -0.956708 2.3097 2
    endloop
  endfacet
  facet normal 0.0980238 -0.995184 0
    outer loop
      vertex -0.487725 2.45196 2
      vertex 0 2.5 15
      vertex -0.487725 2.45196 15
    endloop
  endfacet
  facet normal 0.0980238 -0.995184 0
    outer loop
      vertex 0 2.5 15
      vertex -0.487725 2.45196 2
      vertex 0 2.5 2
    endloop
  endfacet
  facet normal 0.634386 -0.773016 0
    outer loop
      vertex -1.76777 1.76777 2
      vertex -1.38893 2.07867 15
      vertex -1.76777 1.76777 15
    endloop
  endfacet
  facet normal 0.634386 -0.773016 0
    outer loop
      vertex -1.38893 2.07867 15
      vertex -1.76777 1.76777 2
      vertex -1.38893 2.07867 2
    endloop
  endfacet
  facet normal -0.995184 -0.0980238 0
    outer loop
      vertex 2.5 0 2
      vertex 2.45196 0.487725 15
      vertex 2.45196 0.487725 2
    endloop
  endfacet
  facet normal -0.995184 -0.0980238 0
    outer loop
      vertex 2.45196 0.487725 15
      vertex 2.5 0 2
      vertex 2.5 0 15
    endloop
  endfacet
  facet normal -0.0980238 0.995184 0
    outer loop
      vertex 0.487725 -2.45196 2
      vertex 0 -2.5 15
      vertex 0.487725 -2.45196 15
    endloop
  endfacet
  facet normal -0.0980238 0.995184 0
    outer loop
      vertex 0 -2.5 15
      vertex 0.487725 -2.45196 2
      vertex 0 -2.5 2
    endloop
  endfacet
  facet normal -0.290276 0.956943 0
    outer loop
      vertex 0.956708 -2.3097 2
      vertex 0.487725 -2.45196 15
      vertex 0.956708 -2.3097 15
    endloop
  endfacet
  facet normal -0.290276 0.956943 0
    outer loop
      vertex 0.487725 -2.45196 15
      vertex 0.956708 -2.3097 2
      vertex 0.487725 -2.45196 2
    endloop
  endfacet
  facet normal -0.471401 0.881919 0
    outer loop
      vertex 1.38893 -2.07867 2
      vertex 0.956708 -2.3097 15
      vertex 1.38893 -2.07867 15
    endloop
  endfacet
  facet normal -0.471401 0.881919 0
    outer loop
      vertex 0.956708 -2.3097 15
      vertex 1.38893 -2.07867 2
      vertex 0.956708 -2.3097 2
    endloop
  endfacet
  facet normal 0.0980238 0.995184 -0
    outer loop
      vertex 0 -2.5 2
      vertex -0.487725 -2.45196 15
      vertex 0 -2.5 15
    endloop
  endfacet
  facet normal 0.0980238 0.995184 0
    outer loop
      vertex -0.487725 -2.45196 15
      vertex 0 -2.5 2
      vertex -0.487725 -2.45196 2
    endloop
  endfacet
  facet normal 0.634386 0.773016 -0
    outer loop
      vertex -1.38893 -2.07867 2
      vertex -1.76777 -1.76777 15
      vertex -1.38893 -2.07867 15
    endloop
  endfacet
  facet normal 0.634386 0.773016 0
    outer loop
      vertex -1.76777 -1.76777 15
      vertex -1.38893 -2.07867 2
      vertex -1.76777 -1.76777 2
    endloop
  endfacet
  facet normal 0.995184 0.0980238 0
    outer loop
      vertex -2.45196 -0.487725 15
      vertex -2.5 0 2
      vertex -2.5 0 15
    endloop
  endfacet
  facet normal 0.995184 0.0980238 0
    outer loop
      vertex -2.5 0 2
      vertex -2.45196 -0.487725 15
      vertex -2.45196 -0.487725 2
    endloop
  endfacet
  facet normal 0 0 1
    outer loop
      vertex 2.45196 0.487725 2
      vertex 2.45196 -0.487725 2
      vertex 2.5 0 2
    endloop
  endfacet
  facet normal 0 0 1
    outer loop
      vertex 2.3097 0.956708 2
      vertex 2.45196 -0.487725 2
      vertex 2.45196 0.487725 2
    endloop
  endfacet
  facet normal 0 0 1
    outer loop
      vertex 2.3097 0.956708 2
      vertex 2.3097 -0.956708 2
      vertex 2.45196 -0.487725 2
    endloop
  endfacet
  facet normal 0 0 1
    outer loop
      vertex 2.07867 1.38893 2
      vertex 2.3097 -0.956708 2
      vertex 2.3097 0.956708 2
    endloop
  endfacet
  facet normal 0 0 1
    outer loop
      vertex 2.07867 1.38893 2
      vertex 2.07867 -1.38893 2
      vertex 2.3097 -0.956708 2
    endloop
  endfacet
  facet normal 0 0 1
    outer loop
      vertex 1.76777 1.76777 2
      vertex 2.07867 -1.38893 2
      vertex 2.07867 1.38893 2
    endloop
  endfacet
  facet normal 0 0 1
    outer loop
      vertex 1.76777 1.76777 2
      vertex 1.76777 -1.76777 2
      vertex 2.07867 -1.38893 2
    endloop
  endfacet
  facet normal 0 0 1
    outer loop
      vertex 1.38893 2.07867 2
      vertex 1.76777 -1.76777 2
      vertex 1.76777 1.76777 2
    endloop
  endfacet
  facet normal 0 0 1
    outer loop
      vertex 1.38893 2.07867 2
      vertex 1.38893 -2.07867 2
      vertex 1.76777 -1.76777 2
    endloop
  endfacet
  facet normal 0 0 1
    outer loop
      vertex 0.956708 2.3097 2
      vertex 1.38893 -2.07867 2
      vertex 1.38893 2.07867 2
    endloop
  endfacet
  facet normal 0 0 1
    outer loop
      vertex 0.956708 2.3097 2
      vertex 0.956708 -2.3097 2
      vertex 1.38893 -2.07867 2
    endloop
  endfacet
  facet normal 0 0 1
    outer loop
      vertex 0.487725 2.45196 2
      vertex 0.956708 -2.3097 2
      vertex 0.956708 2.3097 2
    endloop
  endfacet
  facet normal 0 0 1
    outer loop
      vertex 0.487725 2.45196 2
      vertex 0.487725 -2.45196 2
      vertex 0.956708 -2.3097 2
    endloop
  endfacet
  facet normal 0 0 1
    outer loop
      vertex 0 2.5 2
      vertex 0.487725 -2.45196 2
      vertex 0.487725 2.45196 2
    endloop
  endfacet
  facet normal 0 0 1
    outer loop
      vertex 0 2.5 2
      vertex 0 -2.5 2
      vertex 0.487725 -2.45196 2
    endloop
  endfacet
  facet normal -0 0 1
    outer loop
      vertex -0.487725 2.45196 2
      vertex 0 -2.5 2
      vertex 0 2.5 2
    endloop
  endfacet
  facet normal 0 0 1
    outer loop
      vertex -0.487725 2.45196 2
      vertex -0.487725 -2.45196 2
      vertex 0 -2.5 2
    endloop
  endfacet
  facet normal -0 0 1
    outer loop
      vertex -0.956708 2.3097 2
      vertex -0.487725 -2.45196 2
      vertex -0.487725 2.45196 2
    endloop
  endfacet
  facet normal 0 0 1
    outer loop
      vertex -0.956708 2.3097 2
      vertex -0.956708 -2.3097 2
      vertex -0.487725 -2.45196 2
    endloop
  endfacet
  facet normal -0 0 1
    outer loop
      vertex -1.38893 2.07867 2
      vertex -0.956708 -2.3097 2
      vertex -0.956708 2.3097 2
    endloop
  endfacet
  facet normal 0 0 1
    outer loop
      vertex -1.38893 2.07867 2
      vertex -1.38893 -2.07867 2
      vertex -0.956708 -2.3097 2
    endloop
  endfacet
  facet normal -0 0 1
    outer loop
      vertex -1.76777 1.76777 2
      vertex -1.38893 -2.07867 2
      vertex -1.38893 2.07867 2
    endloop
  endfacet
  facet normal 0 0 1
    outer loop
      vertex -1.76777 1.76777 2
      vertex -1.76777 -1.76777 2
      vertex -1.38893 -2.07867 2
    endloop
  endfacet
  facet normal -0 0 1
    outer loop
      vertex -2.07867 1.38893 2
      vertex -1.76777 -1.76777 2
      vertex -1.76777 1.76777 2
    endloop
  endfacet
  facet normal 0 0 1
    outer loop
      vertex -2.07867 1.38893 2
      vertex -2.07867 -1.38893 2
      vertex -1.76777 -1.76777 2
    endloop
  endfacet
  facet normal -0 0 1
    outer loop
      vertex -2.3097 0.956708 2
      vertex -2.07867 -1.38893 2
      vertex -2.07867 1.38893 2
    endloop
  endfacet
  facet normal 0 0 1
    outer loop
      vertex -2.3097 0.956708 2
      vertex -2.3097 -0.956708 2
      vertex -2.07867 -1.38893 2
    endloop
  endfacet
  facet normal -0 0 1
    outer loop
      vertex -2.45196 0.487725 2
      vertex -2.3097 -0.956708 2
      vertex -2.3097 0.956708 2
    endloop
  endfacet
  facet normal 0 0 1
    outer loop
      vertex -2.45196 0.487725 2
      vertex -2.45196 -0.487725 2
      vertex -2.3097 -0.956708 2
    endloop
  endfacet
  facet normal 0 -0 1
    outer loop
      vertex -2.45196 -0.487725 2
      vertex -2.45196 0.487725 2
      vertex -2.5 0 2
    endloop
  endfacet
  facet normal -0.956943 -0.290276 0
    outer loop
      vertex 2.45196 0.487725 2
      vertex 2.3097 0.956708 15
      vertex 2.3097 0.956708 2
    endloop
  endfacet
  facet normal -0.956943 -0.290276 0
    outer loop
      vertex 2.3097 0.956708 15
      vertex 2.45196 0.487725 2
      vertex 2.45196 0.487725 15
    endloop
  endfacet
  facet normal -0.290276 -0.956943 0
    outer loop
      vertex 0.487725 2.45196 2
      vertex 0.956708 2.3097 15
      vertex 0.487725 2.45196 15
    endloop
  endfacet
  facet normal -0.290276 -0.956943 -0
    outer loop
      vertex 0.956708 2.3097 15
      vertex 0.487725 2.45196 2
      vertex 0.956708 2.3097 2
    endloop
  endfacet
  facet normal -0.773016 0.634386 0
    outer loop
      vertex 1.76777 -1.76777 2
      vertex 2.07867 -1.38893 15
      vertex 2.07867 -1.38893 2
    endloop
  endfacet
  facet normal -0.773016 0.634386 0
    outer loop
      vertex 2.07867 -1.38893 15
      vertex 1.76777 -1.76777 2
      vertex 1.76777 -1.76777 15
    endloop
  endfacet
  facet normal 0.471401 0.881919 -0
    outer loop
      vertex -0.956708 -2.3097 2
      vertex -1.38893 -2.07867 15
      vertex -0.956708 -2.3097 15
    endloop
  endfacet
  facet normal 0.471401 0.881919 0
    outer loop
      vertex -1.38893 -2.07867 15
      vertex -0.956708 -2.3097 2
      vertex -1.38893 -2.07867 2
    endloop
  endfacet
  facet normal 0.956943 0.290276 0
    outer loop
      vertex -2.3097 -0.956708 15
      vertex -2.45196 -0.487725 2
      vertex -2.45196 -0.487725 15
    endloop
  endfacet
  facet normal 0.956943 0.290276 0
    outer loop
      vertex -2.45196 -0.487725 2
      vertex -2.3097 -0.956708 15
      vertex -2.3097 -0.956708 2
    endloop
  endfacet
  facet normal 0.773016 0.634386 0
    outer loop
      vertex -1.76777 -1.76777 15
      vertex -2.07867 -1.38893 2
      vertex -2.07867 -1.38893 15
    endloop
  endfacet
  facet normal 0.773016 0.634386 0
    outer loop
      vertex -2.07867 -1.38893 2
      vertex -1.76777 -1.76777 15
      vertex -1.76777 -1.76777 2
    endloop
  endfacet
  facet normal -0.881919 0.471401 0
    outer loop
      vertex 2.07867 -1.38893 2
      vertex 2.3097 -0.956708 15
      vertex 2.3097 -0.956708 2
    endloop
  endfacet
  facet normal -0.881919 0.471401 0
    outer loop
      vertex 2.3097 -0.956708 15
      vertex 2.07867 -1.38893 2
      vertex 2.07867 -1.38893 15
    endloop
  endfacet
  facet normal -0.956943 0.290276 0
    outer loop
      vertex 2.3097 -0.956708 2
      vertex 2.45196 -0.487725 15
      vertex 2.45196 -0.487725 2
    endloop
  endfacet
  facet normal -0.956943 0.290276 0
    outer loop
      vertex 2.45196 -0.487725 15
      vertex 2.3097 -0.956708 2
      vertex 2.3097 -0.956708 15
    endloop
  endfacet
endsolid OpenSCAD_Model
